<svg xmlns="http://www.w3.org/2000/svg" xmlns:xlink="http://www.w3.org/1999/xlink" viewBox="0 0 2000 2008.28"><defs><style>.cls-1{fill:url(#linear-gradient);}.cls-2{fill:#fff;}</style><linearGradient id="linear-gradient" x1="611.34" y1="880.48" x2="724.09" y2="995.2" gradientTransform="matrix(15.62, 0, 0, -15.62, -9435.5, 15659.89)" gradientUnits="userSpaceOnUse"><stop offset="0" stop-color="#070135"/><stop offset="1" stop-color="#612d50"/></linearGradient></defs><title>Asset 1</title><g id="Layer_2" data-name="Layer 2"><g id="svg2"><g id="layer1"><rect id="rect3050" class="cls-1" width="2000" height="2008.28" rx="323.08" ry="323.08"/><g id="text3836"><path id="path3841" class="cls-2" d="M1015.1,864.57q76.62,0,116.19-33.33t39.57-98.32q0-64.17-39.57-97.49-39.57-34.17-116.19-34.17H835.77V864.57H1015.1m10.95,544.1q97.67,0,146.49-40.82,49.68-40.83,49.68-123.32,0-80.83-48.83-120.82-48.84-40.83-147.34-40.83H835.77v325.79h190.28m301.41-447.45q104.4,30,161.65,110.83t57.25,198.31q0,180-122.92,268.3T1049.62,1627h-538V383H998.26q261.84,0,378.87,78.33Q1495,539.61,1495,712.08q0,90.82-42.93,155-42.94,63.33-124.61,94.15"/></g></g></g></g></svg>