<?xml version="1.0" encoding="utf-8"?>
<!-- Generator: Adobe Illustrator 22.0.1, SVG Export Plug-In . SVG Version: 6.00 Build 0)  -->
<svg version="1.1" id="Layer_1" xmlns="http://www.w3.org/2000/svg" xmlns:xlink="http://www.w3.org/1999/xlink" x="0px" y="0px"
	 viewBox="0 0 2000 2008.3" style="enable-background:new 0 0 2000 2008.3;" xml:space="preserve">
<style type="text/css">
	.st0{fill:#FFFFFF;}
	.st1{fill:#3E1C45;}
</style>
<title>Asset 1</title>
<g id="Layer_2_1_">
	<g id="svg2">
		<g id="layer1">
			<path id="rect3050" class="st0" d="M323.1,0h1353.8C1855.4,0,2000,144.6,2000,323.1v1362.1c0,178.4-144.6,323.1-323.1,323.1
				H323.1C144.6,2008.3,0,1863.6,0,1685.2V323.1C0,144.6,144.6,0,323.1,0z"/>
			<g id="text3836">
				<path id="path3841" class="st1" d="M1015.1,864.6c51.1,0,89.8-11.1,116.2-33.3s39.6-55,39.6-98.3c0-42.8-13.2-75.3-39.6-97.5
					c-26.4-22.8-65.1-34.2-116.2-34.2H835.8v263.3H1015.1 M1026,1408.7c65.1,0,113.9-13.6,146.5-40.8
					c33.1-27.2,49.7-68.3,49.7-123.3c0-53.9-16.3-94.2-48.8-120.8c-32.6-27.2-81.7-40.8-147.3-40.8H835.8v325.8L1026,1408.7
					 M1327.5,961.2c69.6,20,123.5,56.9,161.7,110.8c38.2,53.9,57.2,120,57.2,198.3c0,120-41,209.4-122.9,268.3
					c-81.9,58.9-206.6,88.3-373.8,88.3h-538V383h486.6c174.6,0,300.8,26.1,378.9,78.3c78.6,52.2,117.9,135.8,117.9,250.8
					c0,60.5-14.3,112.2-42.9,155C1423.4,909.3,1381.9,940.7,1327.5,961.2"/>
			</g>
		</g>
	</g>
</g>
</svg>
