<?xml version="1.0" encoding="utf-8"?>
<!-- Generator: Adobe Illustrator 22.0.1, SVG Export Plug-In . SVG Version: 6.00 Build 0)  -->
<svg version="1.1" id="Layer_1" xmlns="http://www.w3.org/2000/svg" xmlns:xlink="http://www.w3.org/1999/xlink" x="0px" y="0px"
	 viewBox="0 0 512 512" style="enable-background:new 0 0 512 512;" xml:space="preserve">
<style type="text/css">
	.st0{fill:#FFFFFF;}
</style>
<g>
	<path class="st0" d="M474.5,413.3c0,31.3-25.4,56.7-56.5,56.7c-27.4,0-50.2-19.5-55.5-45.4c-32.1,9.9-68.5,2.2-93.9-23.4l41.7-41.8
		c13.6,13.6,35.5,13.6,49.1,0c13.5-13.5,13.6-35.5,0-49.1l-88.8-88.8l41.8-41.8l88.6,88.9c24,24,32.4,57.8,24.8,88.6
		C453.5,361.1,474.5,384.8,474.5,413.3z"/>
	<path class="st0" d="M96.3,159c-9.6,32.1-1.7,68.2,23.5,93.4l88.8,88.8l41.7-41.8l-88.8-88.9c-13.5-13.5-13.5-35.6,0-49.3
		c13.5-13.6,35.5-13.6,49.1,0l41.7-41.8c-23.9-23.9-57.2-32.2-87.8-24.9c-4.3-27-27.7-47.4-55.8-47.6c-31.3,0-56.5,25.4-56.5,56.7
		C52.1,130.6,71,153.2,96.3,159z"/>
	<path class="st0" d="M268.7,119.6c25.1-25.1,61-33.1,92.8-23.7c3.9-27.6,27.4-48.8,56.1-48.8c31.3,0,56.5,25.4,56.5,56.7
		c0,28.8-21.4,52.5-49.1,56.2c9.1,31.8,1.1,67.4-23.9,92.3l-41.7-41.8c13.6-13.6,13.6-35.6,0-49.1c-13.5-13.5-35.5-13.5-49.1,0
		l-88.8,88.8l-41.8-41.8L268.7,119.6z"/>
	<path class="st0" d="M252.3,401.4c-24.2,24.2-58.1,32.4-88.9,24.6c-5.7,25.2-28.3,44-55.1,44c-31.3,0-56.5-25.4-56.5-56.7
		c0-26.8,18.6-49.3,43.5-55.1c-7.9-31,0.3-65.4,24.6-89.7l41.7,41.8c-13.5,13.6-13.5,35.5,0,49.1c13.6,13.6,35.6,13.6,49.1,0
		l88.8-88.9l41.7,41.8L252.3,401.4z"/>
</g>
</svg>
