<?xml version="1.0" encoding="utf-8"?>
<!-- Generator: Adobe Illustrator 22.0.1, SVG Export Plug-In . SVG Version: 6.00 Build 0)  -->
<svg version="1.1" id="Layer_1" xmlns="http://www.w3.org/2000/svg" xmlns:xlink="http://www.w3.org/1999/xlink" x="0px" y="0px"
	 viewBox="0 0 490.6 436.9" style="enable-background:new 0 0 490.6 436.9;" xml:space="preserve">
<style type="text/css">
	.st0{fill:#FFFFFF;}
</style>
<title>Asset 1</title>
<g id="Layer_2_1_">
	<g id="Layer_1-2">
		<path class="st0" d="M490.6,218.5c0-32.5-40.7-63.3-103.1-82.4c14.4-63.6,8-114.2-20.2-130.4c-6.8-3.8-14.6-5.8-22.4-5.6v22.3
			c4-0.1,7.9,0.8,11.4,2.6c13.6,7.8,19.5,37.5,14.9,75.7c-1.1,9.4-2.9,19.3-5.1,29.4c-20.9-5-42.1-8.7-63.5-10.9
			c-12.7-17.6-26.6-34.3-41.6-50c32.6-30.3,63.2-46.9,84-46.9V0c-27.5,0-63.5,19.6-99.9,53.6c-36.4-33.8-72.4-53.2-99.9-53.2v22.3
			c20.7,0,51.4,16.5,84,46.6c-14.9,15.7-28.7,32.3-41.3,49.9c-21.4,2.2-42.7,5.9-63.6,11c-2.3-10-4-19.7-5.2-29
			c-4.7-38.2,1.1-67.9,14.6-75.8c3-1.8,6.9-2.6,11.5-2.6V0.5c-7.9-0.2-15.7,1.8-22.6,5.6c-28.1,16.2-34.4,66.7-19.9,130.1
			C40.5,155.4,0,186.1,0,218.5s40.7,63.3,103.1,82.4c-14.4,63.6-8,114.2,20.2,130.4c6.5,3.8,14.1,5.6,22.5,5.6
			c27.5,0,63.5-19.6,99.9-53.6c36.4,33.8,72.4,53.2,99.9,53.2c7.9,0.2,15.7-1.8,22.6-5.6c28.1-16.2,34.4-66.7,19.9-130.1
			C450.1,281.7,490.6,250.9,490.6,218.5L490.6,218.5z M360.4,151.8c-3.7,12.9-8.3,26.2-13.5,39.5c-4.1-8-8.4-16-13.1-24
			s-9.5-15.8-14.4-23.4C333.6,146,347.3,148.6,360.4,151.8z M314.6,258.3c-7.8,13.5-15.8,26.3-24.1,38.2c-14.9,1.3-30,2-45.2,2
			s-30.2-0.7-45-1.9c-8.3-11.9-16.4-24.6-24.2-38c-7.6-13.1-14.5-26.3-20.8-39.8c6.2-13.4,13.2-26.8,20.7-39.9
			c7.8-13.5,15.8-26.3,24.1-38.2c14.9-1.3,30-2,45.2-2s30.2,0.7,45,1.9c8.3,11.9,16.4,24.6,24.2,38c7.6,13.1,14.5,26.4,20.8,39.8
			C329,231.8,322.1,245.2,314.6,258.3L314.6,258.3z M346.9,245.3c5.4,13.4,10,26.8,13.8,39.8c-13.1,3.2-26.9,5.9-41.2,8
			c4.9-7.7,9.8-15.6,14.4-23.7S342.8,253.3,346.9,245.3L346.9,245.3z M245.5,352c-9.8-10.2-19.1-20.9-27.8-32
			c9,0.4,18.2,0.7,27.5,0.7s18.7-0.2,27.8-0.7C264.4,331.2,255.2,341.8,245.5,352z M171.1,293.1c-14.2-2.1-27.9-4.7-41-7.9
			c3.7-12.9,8.3-26.2,13.5-39.5c4.1,8,8.4,16,13.1,24S166.2,285.5,171.1,293.1z M245,85c9.8,10.2,19.1,20.9,27.8,32
			c-9-0.4-18.2-0.7-27.5-0.7s-18.7,0.2-27.8,0.7C226.1,105.8,235.3,95.2,245,85z M171,143.9c-4.9,7.7-9.8,15.6-14.4,23.7
			s-8.9,16-13,24c-5.4-13.4-10-26.8-13.8-39.8C142.9,148.7,156.7,146,171,143.9z M80.5,269.1c-35.4-15.1-58.3-34.9-58.3-50.6
			s22.9-35.6,58.3-50.6c8.6-3.7,18-7,27.7-10.1c6.1,20.8,13.6,41.1,22.5,60.9c-8.8,19.7-16.2,39.9-22.2,60.6
			C98.6,276.2,89.2,272.8,80.5,269.1L80.5,269.1z M134.3,412c-13.6-7.8-19.5-37.5-14.9-75.7c1.1-9.4,2.9-19.3,5.1-29.4
			c20.9,5,42.1,8.7,63.5,10.9c12.7,17.6,26.6,34.3,41.6,50c-32.6,30.3-63.2,46.9-84,46.9C141.7,414.7,137.8,413.8,134.3,412
			L134.3,412z M371.5,335.8c4.7,38.2-1.1,67.9-14.6,75.8c-3,1.8-6.9,2.6-11.5,2.6c-20.7,0-51.4-16.5-84-46.6
			c14.9-15.7,28.7-32.3,41.3-49.9c21.4-2.2,42.7-5.9,63.6-11C368.5,316.3,370.3,326,371.5,335.8z M410,269.1
			c-8.6,3.7-18,7-27.7,10.1c-6.1-20.8-13.6-41.1-22.5-60.9c8.8-19.7,16.2-39.9,22.2-60.6c9.9,3.1,19.3,6.5,28.1,10.2
			c35.4,15.1,58.3,34.9,58.3,50.6S445.4,254.1,410,269.1z"/>
		<circle class="st0" cx="245.2" cy="218.5" r="45.7"/>
	</g>
</g>
</svg>
