<?xml version="1.0" encoding="utf-8"?>
<!-- Generator: Adobe Illustrator 22.0.1, SVG Export Plug-In . SVG Version: 6.00 Build 0)  -->
<svg version="1.1" id="Layer_1" xmlns="http://www.w3.org/2000/svg" xmlns:xlink="http://www.w3.org/1999/xlink" x="0px" y="0px"
	 viewBox="0 0 412 247.7" style="enable-background:new 0 0 412 247.7;" xml:space="preserve">
<style type="text/css">
	.st0{fill:#FFFFFF;}
</style>
<title>Asset 1</title>
<g id="Layer_2_1_">
	<g id="Layer_1-2">
		<path class="st0" d="M215.2,232.2c-3.1-2.3-5.2-5.8-5.8-9.6l-1.9-12.5h-62.2l-2,12.5c-0.6,3.8-2.6,7.3-5.8,9.6
			c-5.2,3.8-9.3,7.1-5.2,7.7s41.3,0,44,0s40.1,0.5,44,0S220.4,236.1,215.2,232.2z"/>
		<path class="st0" d="M70.5,127.6c0-5.8-4.7-10.4-10.5-10.4H10.4c-5.8,0-10.4,4.7-10.4,10.4v109.7c0,5.8,4.7,10.4,10.4,10.4h49.6
			c5.8,0,10.5-4.7,10.5-10.4V127.6z M30.1,128.9h10.5c0.7,0.1,1.3,0.7,1.2,1.4c-0.1,0.6-0.6,1.1-1.2,1.2H30.1
			c-0.7,0-1.3-0.6-1.3-1.3C28.8,129.5,29.3,128.9,30.1,128.9C30.1,128.9,30.1,128.9,30.1,128.9z M34.9,241.5c-2.9,0-5.2-2.3-5.2-5.2
			c0-2.9,2.3-5.2,5.2-5.2s5.2,2.3,5.2,5.2c0,0,0,0,0,0C40.1,239.2,37.8,241.5,34.9,241.5L34.9,241.5z M64,226.8H6.5v-87.5H64V226.8
			L64,226.8z"/>
		<path class="st0" d="M397.3,57H289.9c-8.1,0-14.7,6.6-14.7,14.7v0v153.8c0,8.1,6.6,14.7,14.7,14.7l0,0h107.5
			c8.1,0,14.7-6.6,14.7-14.7c0,0,0,0,0,0V71.7C412,63.6,405.4,57,397.3,57C397.3,57,397.3,57,397.3,57z M322.5,232
			c-4,0-7.3-3.3-7.3-7.3s3.3-7.3,7.3-7.3c4,0,7.3,3.3,7.3,7.3c0,0,0,0,0,0C329.9,228.7,326.6,232,322.5,232z M343.5,232
			c-4,0-7.3-3.3-7.3-7.3c0-4,3.3-7.3,7.3-7.3s7.3,3.3,7.3,7.3c0,0,0,0,0,0C350.9,228.7,347.6,232,343.5,232L343.5,232z M364.6,232
			c-4,0-7.3-3.3-7.3-7.4s3.3-7.3,7.4-7.3c4,0,7.3,3.3,7.3,7.4C372,228.7,368.7,232,364.6,232C364.7,232,364.7,232,364.6,232
			L364.6,232z M402.8,210.8H284.4v-141h118.5L402.8,210.8L402.8,210.8z"/>
		<path class="st0" d="M308.5,44.6h18V12c0-6.6-5.4-12-12-12H38.3c-6.6,0-12,5.4-12,12v92.7h18V18h264.3V44.6z"/>
		<path class="st0" d="M82.9,162.1v36h179.9v-36H82.9z M176.4,188.4c-4.6,0-8.2-3.7-8.2-8.2s3.7-8.2,8.2-8.2c4.6,0,8.2,3.7,8.2,8.2
			C184.7,184.7,181,188.4,176.4,188.4C176.4,188.4,176.4,188.4,176.4,188.4L176.4,188.4z"/>
	</g>
</g>
</svg>
