<svg xmlns="http://www.w3.org/2000/svg" viewBox="0 0 412 247.73"><title>Asset 1</title><g id="Layer_2" data-name="Layer 2"><g id="Layer_1-2" data-name="Layer 1"><path d="M215.23,232.25a14.68,14.68,0,0,1-5.76-9.58l-1.95-12.47h-62.2l-2,12.47a14.64,14.64,0,0,1-5.75,9.58c-5.2,3.83-9.3,7.11-5.2,7.67s41.26,0,44,0,40.05.53,44,0S220.42,236.09,215.23,232.25Z"/><path d="M70.54,127.56a10.45,10.45,0,0,0-10.45-10.45H10.45A10.45,10.45,0,0,0,0,127.56V237.28a10.45,10.45,0,0,0,10.45,10.45H60.09a10.45,10.45,0,0,0,10.45-10.45V127.56Zm-40.46,1.31H40.54a1.31,1.31,0,0,1,0,2.61H30.08a1.31,1.31,0,0,1-1.3-1.31A1.29,1.29,0,0,1,30.08,128.87Zm4.8,112.68a5.23,5.23,0,1,1,5.22-5.23A5.23,5.23,0,0,1,34.88,241.55ZM64,226.83H6.53V139.31H64v87.52Z"/><path d="M397.34,57H289.85a14.66,14.66,0,0,0-14.66,14.66V225.51a14.66,14.66,0,0,0,14.66,14.66H397.34A14.66,14.66,0,0,0,412,225.51V71.65A14.65,14.65,0,0,0,397.34,57ZM322.55,232a7.33,7.33,0,1,1,7.31-7.32A7.33,7.33,0,0,1,322.55,232Zm21,0a7.33,7.33,0,1,1,7.33-7.32A7.32,7.32,0,0,1,343.59,232Zm21.06,0A7.33,7.33,0,1,1,372,224.7,7.32,7.32,0,0,1,364.65,232Zm38.19-21.17H284.35v-141H402.84v141Z"/><path d="M308.55,44.64h18V12a12,12,0,0,0-12-12H38.29a12,12,0,0,0-12,12v92.74h18V18H308.55V44.64Z"/><path d="M82.9,162.15v36H262.83v-36Zm93.52,26.26a8.24,8.24,0,1,1,8.24-8.24A8.24,8.24,0,0,1,176.42,188.41Z"/></g></g></svg>