<?xml version="1.0" encoding="utf-8"?>
<!-- Generator: Adobe Illustrator 22.0.1, SVG Export Plug-In . SVG Version: 6.00 Build 0)  -->
<svg version="1.1" id="Layer_1" xmlns="http://www.w3.org/2000/svg" xmlns:xlink="http://www.w3.org/1999/xlink" x="0px" y="0px"
	 viewBox="0 0 64 64" style="enable-background:new 0 0 64 64;" xml:space="preserve">
<style type="text/css">
	.st0{fill:#12A5D7;}
</style>
<path class="st0" d="M4.6,32c0,10.9,6.3,20.3,15.5,24.7L6.9,20.8C5.4,24.2,4.6,28,4.6,32z M50.5,30.6c0-3.4-1.2-5.7-2.3-7.6
	c-1.4-2.3-2.7-4.2-2.7-6.4c0-2.5,1.9-4.9,4.6-4.9c0.1,0,0.2,0,0.4,0C45.7,7.3,39.1,4.6,32,4.6c-9.6,0-18,4.9-22.9,12.4
	c0.6,0,1.3,0,1.8,0c2.9,0,7.3-0.4,7.3-0.4c1.5-0.1,1.7,2.1,0.2,2.3c0,0-1.5,0.2-3.1,0.3l10,29.7l6-18l-4.3-11.7
	C25.4,19,24,18.9,24,18.9c-1.5-0.1-1.3-2.4,0.2-2.3c0,0,4.5,0.4,7.2,0.4c2.9,0,7.3-0.4,7.3-0.4c1.5-0.1,1.7,2.1,0.2,2.3
	c0,0-1.5,0.2-3.1,0.3l9.9,29.5l2.7-9.1C49.8,35.9,50.5,33,50.5,30.6z M32.5,34.4l-8.2,23.9c2.5,0.7,5.1,1.1,7.8,1.1
	c3.2,0,6.3-0.6,9.1-1.6c-0.1-0.1-0.1-0.2-0.2-0.4L32.5,34.4z M56.1,18.8c0.1,0.9,0.2,1.8,0.2,2.8c0,2.8-0.5,5.9-2.1,9.8l-8.4,24.2
	C54,51,59.5,42.1,59.5,32C59.5,27.2,58.2,22.7,56.1,18.8z M0,32c0,17.6,14.4,32,32,32c17.6,0,32-14.4,32-32C64,14.4,49.6,0,32,0
	C14.4,0,0,14.4,0,32z M1.5,32C1.5,15.2,15.2,1.5,32,1.5c16.8,0,30.5,13.7,30.5,30.5c0,16.8-13.7,30.5-30.5,30.5
	C15.2,62.5,1.5,48.8,1.5,32z"/>
</svg>
