<?xml version="1.0" encoding="utf-8"?>
<!-- Generator: Adobe Illustrator 22.0.1, SVG Export Plug-In . SVG Version: 6.00 Build 0)  -->
<svg version="1.1" id="Layer_1" xmlns="http://www.w3.org/2000/svg" xmlns:xlink="http://www.w3.org/1999/xlink" x="0px" y="0px"
	 viewBox="0 0 64 64" style="enable-background:new 0 0 64 64;" xml:space="preserve">
<style type="text/css">
	.st0{fill:#FFFFFF;}
</style>
<path class="st0" d="M4.6,32c0,10.9,6.3,20.3,15.5,24.7L6.9,20.8C5.4,24.2,4.6,28,4.6,32z M50.5,30.6c0-3.4-1.2-5.7-2.3-7.6
	c-1.4-2.3-2.7-4.2-2.7-6.4c0-2.5,1.9-4.9,4.6-4.9c0.1,0,0.2,0,0.4,0C45.7,7.3,39.1,4.6,32,4.6C22.4,4.6,14,9.5,9.1,17
	c0.6,0,1.3,0,1.8,0c2.9,0,7.3-0.4,7.3-0.4c1.5-0.1,1.7,2.1,0.2,2.3c0,0-1.5,0.2-3.1,0.3l10,29.7l6-18L27,19.2c-1.6-0.2-3-0.3-3-0.3
	c-1.5-0.1-1.3-2.4,0.2-2.3c0,0,4.5,0.4,7.2,0.4c2.9,0,7.3-0.4,7.3-0.4c1.5-0.1,1.7,2.1,0.2,2.3c0,0-1.5,0.2-3.1,0.3l9.9,29.5
	l2.7-9.1C49.8,35.9,50.5,33,50.5,30.6z M32.5,34.4l-8.2,23.9c2.5,0.7,5.1,1.1,7.8,1.1c3.2,0,6.3-0.6,9.1-1.6
	c-0.1-0.1-0.1-0.2-0.2-0.4L32.5,34.4z M56.1,18.8c0.1,0.9,0.2,1.8,0.2,2.8c0,2.8-0.5,5.9-2.1,9.8l-8.4,24.2C54,51,59.5,42.1,59.5,32
	C59.5,27.2,58.2,22.7,56.1,18.8z M0,32c0,17.6,14.4,32,32,32s32-14.4,32-32S49.6,0,32,0S0,14.4,0,32z M1.5,32
	C1.5,15.2,15.2,1.5,32,1.5S62.5,15.2,62.5,32S48.8,62.5,32,62.5S1.5,48.8,1.5,32z"/>
</svg>
