<?xml version="1.0" standalone="no"?>
<!DOCTYPE svg PUBLIC "-//W3C//DTD SVG 1.1//EN" "http://www.w3.org/Graphics/SVG/1.1/DTD/svg11.dtd" >
<svg>
<metadata>
Created by FontForge 20090622 at Thu May 12 06:01:48 2016
 By deploy user
Copyright (C) 2004, 2012 Hoefler &#38; Frere-Jones. http://www.typography.com
</metadata>
<defs>
<font id="Tungsten-Thin" horiz-adv-x="500" >
  <font-face 
    font-family="Tungsten Thin"
    font-weight="250"
    font-stretch="normal"
    units-per-em="1000"
    panose-1="0 0 0 0 0 0 0 0 0 0"
    ascent="800"
    descent="-200"
    x-height="530"
    cap-height="700"
    bbox="-11 -200 644 847"
    underline-thickness="50"
    underline-position="-50"
    unicode-range="U+0020-U+FB04"
  />
<missing-glyph 
d="M0 -200v1000h500v-1000h-500zM71 750l179 -390l179 390h-358zM50 -76l172 376l-172 376v-752zM450 676l-172 -376l172 -376v752zM250 240l-179 -390h358z" />
    <glyph glyph-name=".notdef" 
d="M0 -200v1000h500v-1000h-500zM71 750l179 -390l179 390h-358zM50 -76l172 376l-172 376v-752zM450 676l-172 -376l172 -376v752zM250 240l-179 -390h358z" />
    <glyph glyph-name=".null" horiz-adv-x="0" 
 />
    <glyph glyph-name="nonmarkingreturn" horiz-adv-x="333" 
 />
    <glyph glyph-name="space" unicode=" " horiz-adv-x="120" 
 />
    <glyph glyph-name="exclam" unicode="!" horiz-adv-x="146" 
d="M80 320l-2 -174h-10l-2 174v380h14v-380zM81 61v-61h-16v61h16z" />
    <glyph glyph-name="quotedbl" unicode="&#x22;" horiz-adv-x="181" 
d="M71 700l-16 -188h-9l11 188h14zM140 700l-16 -188h-9l11 188h14z" />
    <glyph glyph-name="numbersign" unicode="#" horiz-adv-x="382" 
d="M272 702v-173l82 22v-13l-82 -23v-279l82 22v-13l-82 -22v-225h-13v221l-135 -36v-185h-13v181l-83 -22v14l83 22v279l-83 -22v14l83 22v216h13v-213l135 36v177h13zM124 475v-278l135 35v280z" />
    <glyph glyph-name="dollar" unicode="$" horiz-adv-x="348" 
d="M177 -61h-13v59h-4q-106 0 -106 100v135h14v-135q0 -87 92 -87h4v345l-53 42q-57 45 -57 115v89q0 100 106 100h4v54h13v-54h2q106 0 106 -100v-114h-14v114q0 87 -92 87h-2v-325l53 -41q57 -45 57 -115v-110q0 -100 -106 -100h-4v-59zM222 311l-45 35v-335h4q92 0 92 87
v109q0 64 -51 104zM119 410l45 -36v315h-4q-92 0 -92 -87v-88q0 -64 51 -104z" />
    <glyph glyph-name="percent" unicode="%" horiz-adv-x="456" 
d="M138 376h-22q-39 0 -52.5 19.5t-13.5 67.5v155q0 48 13.5 67.5t52.5 19.5h22q39 0 52.5 -19.5t13.5 -67.5v-155q0 -48 -13.5 -67.5t-52.5 -19.5zM318 325h22q39 0 52.5 -19.5t13.5 -67.5v-155q0 -48 -13.5 -67.5t-52.5 -19.5h-22q-39 0 -52.5 19.5t-13.5 67.5v155
q0 48 13.5 67.5t52.5 19.5zM340 312h-22q-33 0 -43 -16t-10 -58v-155q0 -42 10 -58t43 -16h22q33 0 43 16t10 58v155q0 42 -10 58t-43 16zM138 692h-22q-33 0 -43 -16t-10 -58v-155q0 -42 10 -58t43 -16h22q33 0 43 16t10 58v155q0 42 -10 58t-43 16zM348 700l-115 -352
l-111 -348h-14l116 358l110 342h14z" />
    <glyph glyph-name="ampersand" unicode="&#x26;" horiz-adv-x="373" 
d="M344 0l-80 152l-26 -83q-24 -74 -92 -74h-17q-41 0 -63 21.5t-22 61.5v179q0 36 7 56.5t29 39.5l55 48l-26 50q-24 45 -24 103v57q0 45 24.5 69.5t70.5 24.5h20q47 0 71.5 -24.5t24.5 -69.5v-118h-14v118q0 81 -82 81h-20q-81 0 -81 -81v-57q0 -52 23 -97l140 -273
l65 207h15l-72 -222l89 -169h-15zM146 8q57 0 79 65l30 94l-114 221l-53 -47q-18 -16 -24 -33.5t-6 -50.5v-179q0 -34 18.5 -52t52.5 -18h17z" />
    <glyph glyph-name="quotesingle" unicode="'" horiz-adv-x="112" 
d="M71 700l-16 -188h-9l11 188h14z" />
    <glyph glyph-name="parenleft" unicode="(" horiz-adv-x="195" 
d="M160 -31l-10 -6q-53 55 -65.5 86.5t-12.5 111.5v378q0 80 12.5 111.5t65.5 86.5l10 -6q-51 -54 -62.5 -85t-11.5 -107v-378q0 -76 11.5 -107t62.5 -85z" />
    <glyph glyph-name="parenright" unicode=")" horiz-adv-x="195" 
d="M45 -37l-10 6q51 54 62.5 85t11.5 107v378q0 76 -11.5 107t-62.5 85l10 6q53 -55 65.5 -86.5t12.5 -111.5v-378q0 -80 -12.5 -111.5t-65.5 -86.5z" />
    <glyph glyph-name="asterisk" unicode="*" horiz-adv-x="268" 
d="M140 700v-139l109 75h1v-13l-106 -72l106 -71v-13h-1l-109 74v-139h-12l1 141l-110 -76h-1v13l106 71l-106 72v13h1l110 -75l-1 139h12z" />
    <glyph glyph-name="plus" unicode="+" horiz-adv-x="312" 
d="M150 228v120h-120v14h120v120h14v-120h120v-14h-120v-120h-14z" />
    <glyph glyph-name="comma" unicode="," horiz-adv-x="84" 
d="M50 61v-44q0 -32 -18 -66l-9 -17l-7 3l8 17q14 32 15 46h-5v61h16z" />
    <glyph glyph-name="hyphen" unicode="-" horiz-adv-x="174" 
d="M20 287h134v-14h-134v14z" />
    <glyph glyph-name="period" unicode="." horiz-adv-x="84" 
d="M50 61v-61h-16v61h16z" />
    <glyph glyph-name="slash" unicode="/" horiz-adv-x="222" 
d="M182 732l-130 -764h-13l130 764h13z" />
    <glyph glyph-name="zero" unicode="0" horiz-adv-x="358" 
d="M302 99q0 -104 -106 -104h-34q-106 0 -106 104v502q0 104 106 104h34q106 0 106 -104v-502zM288 601q0 91 -92 91h-34q-92 0 -92 -91v-502q0 -91 92 -91h34q92 0 92 91v502z" />
    <glyph glyph-name="one" unicode="1" horiz-adv-x="173" 
d="M100 704v-704h-14v659l-66 -8v8l30 7q23 6 30 12t10 21l1 5h9z" />
    <glyph glyph-name="two" unicode="2" horiz-adv-x="333" 
d="M105 233l131 165q37 46 37 105v106q0 83 -88 83h-24q-89 0 -89 -83v-137h-14v137q0 96 101 96h27q101 0 101 -96v-104q0 -65 -40 -115l-131 -166q-27 -34 -37 -65.5t-10 -80.5v-65h223v-13h-237v81q0 50 10.5 82.5t39.5 69.5z" />
    <glyph glyph-name="three" unicode="3" horiz-adv-x="346" 
d="M286 99v150q0 105 -106 105h-59v13h58q105 0 105 105v129q0 91 -92 91h-31q-92 0 -92 -91v-102h-14v102q0 104 106 104h31q106 0 106 -104v-129q0 -94 -75 -112q77 -19 77 -111v-150q0 -104 -106 -104h-34q-106 0 -106 104v115h14v-115q0 -91 92 -91h34q92 0 92 91z" />
    <glyph glyph-name="four" unicode="4" horiz-adv-x="332" 
d="M18 160v13l210 527h19v-528h76v-12h-76v-160h-13v160h-216zM234 172v510l-203 -510h203z" />
    <glyph glyph-name="five" unicode="5" horiz-adv-x="342" 
d="M292 320v-221q0 -104 -106 -104h-23q-106 0 -106 104v134h14v-134q0 -91 92 -91h23q92 0 92 91v221q0 91 -88 91q-36 0 -61 -13.5t-57 -41.5h-11l2 344h227v-13h-213l-2 -311q19 16 31.5 24.5t35 16t48.5 7.5q49 0 75.5 -27t26.5 -77z" />
    <glyph glyph-name="six" unicode="6" horiz-adv-x="352" 
d="M71 601v-232q66 33 117 34h6q55 0 80.5 -27t25.5 -70v-207q0 -104 -106 -104h-31q-106 0 -106 104v502q0 104 106 104h30q106 0 106 -104v-96h-14v96q0 91 -92 91h-30q-92 0 -92 -91zM190 389q-60 0 -119 -35v-255q0 -91 92 -91h31q92 0 92 91v206q0 84 -96 84z" />
    <glyph glyph-name="seven" unicode="7" horiz-adv-x="271" 
d="M228 687h-208v13h221v-13l-160 -687h-14z" />
    <glyph glyph-name="eight" unicode="8" horiz-adv-x="350" 
d="M157 705h35q52 0 80 -27.5t28 -77.5v-125q0 -93 -71 -111q75 -18 75 -108v-157q0 -104 -106 -104h-46q-106 0 -106 104v157q0 90 74 108q-70 18 -70 111v125q0 50 27.5 77.5t79.5 27.5zM60 256v-157q0 -91 92 -91h46q92 0 92 91v157q0 101 -104 101h-22q-104 0 -104 -101
zM164 370h21q101 0 101 105v125q0 44 -24.5 68t-69.5 24h-35q-45 0 -69 -24t-24 -68v-125q0 -105 100 -105z" />
    <glyph glyph-name="nine" unicode="9" horiz-adv-x="351" 
d="M188 8q92 0 92 91v222q-58 -32 -112 -34h-10q-55 0 -80.5 27t-25.5 70v217q0 104 106 104h30q106 0 106 -104v-502q0 -104 -106 -104h-30q-106 0 -106 104v96h14v-96q0 -91 92 -91h30zM162 301q57 0 118 35v265q0 91 -92 91h-30q-92 0 -92 -91v-216q0 -84 96 -84z" />
    <glyph glyph-name="colon" unicode=":" horiz-adv-x="84" 
d="M50 61v-61h-16v61h16zM50 530v-61h-16v61h16z" />
    <glyph glyph-name="semicolon" unicode=";" horiz-adv-x="84" 
d="M50 61v-44q0 -32 -18 -66l-9 -17l-7 3l8 17q14 32 15 46h-5v61h16zM50 530v-61h-16v61h16z" />
    <glyph glyph-name="less" unicode="&#x3c;" horiz-adv-x="314" 
d="M15 363l272 105v-15l-254 -98l254 -92v-16l-272 101v15z" />
    <glyph glyph-name="equal" unicode="=" horiz-adv-x="314" 
d="M35 437h244v-14h-244v14zM35 288h244v-14h-244v14z" />
    <glyph glyph-name="greater" unicode="&#x3e;" horiz-adv-x="314" 
d="M27 467l272 -105v-15l-272 -101v16l254 92l-254 98v15z" />
    <glyph glyph-name="question" unicode="?" horiz-adv-x="299" 
d="M177 373l31 38q21 26 28.5 43t7.5 43v108q0 87 -88 87h-17q-88 0 -88 -83v-138h-14v138q0 96 102 96h17q102 0 102 -100v-108q0 -29 -8.5 -48t-33.5 -50l-31 -39q-18 -23 -23.5 -37t-5.5 -39v-139h-14v139q0 28 7 45.5t28 43.5zM157 61v-61h-16v61h16z" />
    <glyph glyph-name="at" unicode="@" horiz-adv-x="507" 
d="M391 41h-14q-29 0 -41 10t-12 33q-52 -41 -87 -41q-70 0 -70 65v94q0 33 13 51t48 33l94 38v110q0 32 -14.5 47.5t-48.5 15.5h-6q-71 0 -71 -63v-62h-13v62q0 76 84 76h6q76 0 76 -76v-339q0 -26 8 -34t35 -8h13q23 0 33.5 9.5t10.5 37.5v352q0 84 -28.5 118.5
t-105.5 34.5h-95q-77 0 -105.5 -34.5t-28.5 -118.5v-342q0 -84 28.5 -118.5t105.5 -34.5h233v-11h-233q-82 0 -114 37t-32 127v342q0 90 32 127t114 37h95q82 0 114 -37t32 -127v-352q0 -33 -14 -46t-42 -13zM238 56q32 0 84 41v214l-91 -37q-30 -13 -40.5 -28.5
t-10.5 -43.5v-93q0 -53 58 -53z" />
    <glyph glyph-name="A" unicode="A" horiz-adv-x="354" 
d="M186 704l130 -704h-14l-31 169h-188l-31 -169h-14l130 704h18zM177 682l-92 -500h183z" />
    <glyph glyph-name="B" unicode="B" horiz-adv-x="352" 
d="M219 355q77 -19 77 -111v-140q0 -104 -106 -104h-127v700h126q106 0 106 -104v-129q0 -93 -76 -112zM281 596q0 91 -92 91h-112v-325h98q106 0 106 105v129zM77 349v-336h113q92 0 92 91v140q0 105 -106 105h-99z" />
    <glyph glyph-name="C" unicode="C" horiz-adv-x="348" 
d="M284 254h14v-155q0 -104 -106 -104h-30q-106 0 -106 104v502q0 104 106 104h29q106 0 106 -104v-134h-14v134q0 91 -92 91h-29q-92 0 -92 -91v-502q0 -91 92 -91h30q92 0 92 91v155z" />
    <glyph glyph-name="D" unicode="D" horiz-adv-x="357" 
d="M63 0v700h102q136 0 136 -136v-428q0 -136 -136 -136h-102zM77 686v-672h88q122 0 122 122v428q0 122 -122 122h-88z" />
    <glyph glyph-name="E" unicode="E" horiz-adv-x="304" 
d="M63 700h190v-13h-176v-325h171v-13h-171v-336h178v-13h-192v700z" />
    <glyph glyph-name="F" unicode="F" horiz-adv-x="283" 
d="M63 700h186v-13h-172v-325h167v-13h-167v-349h-14v700z" />
    <glyph glyph-name="G" unicode="G" horiz-adv-x="356" 
d="M286 334h-112v13h126v-248q0 -104 -106 -104h-32q-106 0 -106 104v502q0 104 106 104h32q106 0 106 -104v-121h-14v121q0 91 -92 91h-32q-92 0 -92 -91v-502q0 -91 92 -91h32q92 0 92 91v235z" />
    <glyph glyph-name="H" unicode="H" horiz-adv-x="365" 
d="M77 362h211v338h14v-700h-14v349h-211v-349h-14v700h14v-338z" />
    <glyph glyph-name="I" unicode="I" horiz-adv-x="144" 
d="M79 700v-700h-14v700h14z" />
    <glyph glyph-name="J" unicode="J" horiz-adv-x="207" 
d="M146 700v-583q0 -63 -25 -90t-87 -27h-4v14h4q56 0 77 23.5t21 79.5v583h14z" />
    <glyph glyph-name="K" unicode="K" horiz-adv-x="310" 
d="M286 0h-16l-193 352v-352h-14v700h14v-346l197 346h16l-199 -346z" />
    <glyph glyph-name="L" unicode="L" horiz-adv-x="266" 
d="M63 700h14v-687h168v-13h-182v700z" />
    <glyph glyph-name="M" unicode="M" horiz-adv-x="480" 
d="M232 0l-156 669l1 -518v-151h-14v700h20l157 -674l157 674h20v-700h-14v665l-155 -665h-16z" />
    <glyph glyph-name="N" unicode="N" horiz-adv-x="369" 
d="M285 0l-208 674v-216l-1 -458h-13v700h21l208 -677v203l1 474h13v-700h-21z" />
    <glyph glyph-name="O" unicode="O" horiz-adv-x="362" 
d="M306 99q0 -104 -106 -104h-38q-106 0 -106 104v502q0 104 106 104h38q106 0 106 -104v-502zM292 601q0 91 -92 91h-38q-92 0 -92 -91v-502q0 -91 92 -91h38q92 0 92 91v502z" />
    <glyph glyph-name="P" unicode="P" horiz-adv-x="319" 
d="M77 292v-292h-14v700h104q53 0 83.5 -27t30.5 -77v-186q0 -57 -30.5 -87.5t-88.5 -30.5h-85zM267 596q0 44 -27 67.5t-73 23.5h-90v-382h84q106 0 106 105v186z" />
    <glyph glyph-name="Q" unicode="Q" horiz-adv-x="362" 
d="M306 601v-502q0 -48 -25.5 -75t-71.5 -27l104 -59l-9 -14l-116 71h-26q-106 0 -106 104v502q0 104 106 104h38q106 0 106 -104zM292 99v502q0 91 -92 91h-38q-92 0 -92 -91v-502q0 -91 92 -91h38q92 0 92 91z" />
    <glyph glyph-name="R" unicode="R" horiz-adv-x="353" 
d="M212 342q76 -19 76 -111v-231h-14v231q0 105 -106 105h-91v-336h-14v700h118q106 0 106 -104v-142q0 -89 -75 -112zM273 596q0 91 -92 91h-104v-338h90q106 0 106 105v142z" />
    <glyph glyph-name="S" unicode="S" horiz-adv-x="338" 
d="M230 323q57 -45 57 -115v-113q0 -100 -106 -100h-21q-106 0 -106 100v138h14v-138q0 -87 92 -87h21q92 0 92 87v112q0 64 -51 104l-111 87q-57 45 -57 115v92q0 100 106 100h19q106 0 106 -100v-117h-14v117q0 87 -92 87h-19q-92 0 -92 -87v-91q0 -64 51 -104z" />
    <glyph glyph-name="T" unicode="T" horiz-adv-x="290" 
d="M152 0h-14v687h-120v13h254v-13h-120v-687z" />
    <glyph glyph-name="U" unicode="U" horiz-adv-x="365" 
d="M304 700v-598q0 -107 -108 -107h-27q-108 0 -108 107v598h14v-598q0 -94 94 -94h27q94 0 94 94v598h14z" />
    <glyph glyph-name="V" unicode="V" horiz-adv-x="332" 
d="M175 -4h-18l-123 704h14l118 -681l118 681h14z" />
    <glyph glyph-name="W" unicode="W" horiz-adv-x="527" 
d="M272 700l97 -674l105 674h14l-110 -700h-18l-97 672l-95 -672h-18l-112 700h14l107 -674l95 674h18z" />
    <glyph glyph-name="X" unicode="X" horiz-adv-x="305" 
d="M273 700l-114 -346l115 -354h-15l-107 337l-107 -337h-15l116 354l-114 346h15l105 -328l107 328h14z" />
    <glyph glyph-name="Y" unicode="Y" horiz-adv-x="297" 
d="M277 700l-121 -450v-250h-14v247l-122 453h14l115 -432l114 432h14z" />
    <glyph glyph-name="Z" unicode="Z" horiz-adv-x="279" 
d="M226 687h-189v13h202v-13l-189 -674h199v-13h-212v13z" />
    <glyph glyph-name="bracketleft" unicode="[" horiz-adv-x="209" 
d="M200 -20v-12h-126v764h126v-12h-113v-740h113z" />
    <glyph glyph-name="backslash" unicode="\" horiz-adv-x="222" 
d="M169 -32l-130 764h14l130 -764h-14z" />
    <glyph glyph-name="bracketright" unicode="]" horiz-adv-x="209" 
d="M9 -32v12h113v740h-113v12h126v-764h-126z" />
    <glyph glyph-name="asciicircum" unicode="^" horiz-adv-x="314" 
d="M160 700l124 -260h-15l-114 239l-109 -239h-15l119 260h10z" />
    <glyph glyph-name="underscore" unicode="_" horiz-adv-x="445" 
d="M18 -49h409v-11h-409v11z" />
    <glyph glyph-name="grave" unicode="`" 
d="M234 678l47 -93h-11l-53 93h17z" />
    <glyph glyph-name="a" unicode="a" horiz-adv-x="312" 
d="M49 74v99q0 39 17 61t61 40l116 48v121q0 78 -82 78h-8q-86 0 -86 -78v-74h-14v74q0 91 100 91h8q96 0 96 -91v-443h-14v41q-62 -45 -106 -45h-5q-83 0 -83 78zM138 9q41 0 105 47v252l-112 -47q-38 -16 -53 -35t-15 -53v-98q0 -66 70 -66h5z" />
    <glyph glyph-name="b" unicode="b" horiz-adv-x="324" 
d="M57 0v710h14v-223q35 26 58 36.5t50 10.5h8q87 0 87 -78v-382q0 -78 -87 -78h-8q-27 0 -50 10.5t-58 36.5v-43h-14zM71 472v-413q36 -28 58.5 -39t48.5 -11h8q74 0 74 66v380q0 66 -74 66h-8q-26 0 -48.5 -10.5t-58.5 -38.5z" />
    <glyph glyph-name="c" unicode="c" horiz-adv-x="320" 
d="M255 356v76q0 89 -88 89h-15q-88 0 -88 -89v-334q0 -89 88 -89h16q88 0 88 89v91h14v-91q0 -102 -102 -102h-16q-102 0 -102 102v334q0 102 102 102h15q102 0 102 -102v-76h-14z" />
    <glyph glyph-name="d" unicode="d" horiz-adv-x="324" 
d="M267 710v-710h-14v43q-35 -26 -58 -36.5t-50 -10.5h-8q-87 0 -87 78v382q0 78 87 78h8q27 0 50 -10.5t58 -36.5v223h14zM253 58v413q-36 28 -58.5 39t-48.5 11h-8q-74 0 -74 -66v-380q0 -66 74 -66h8q26 0 48.5 10.5t58.5 38.5z" />
    <glyph glyph-name="e" unicode="e" horiz-adv-x="317" 
d="M267 256h-203v-156q0 -91 90 -91h9q90 0 90 91v62h14v-62q0 -104 -104 -104h-9q-104 0 -104 104v330q0 104 104 104h9q104 0 104 -104v-174zM64 430v-161h189v161q0 91 -90 91h-9q-90 0 -90 -91z" />
    <glyph glyph-name="f" unicode="f" horiz-adv-x="180" 
d="M73 530v105q0 75 68 75h31v-13h-31q-54 0 -54 -61v-106h82v-12h-82v-518h-14v518h-46v12h46z" />
    <glyph glyph-name="g" unicode="g" horiz-adv-x="320" 
d="M265 530v-560q0 -82 -91 -82h-27q-93 0 -93 82v14h14v-14q0 -69 79 -69h27q77 0 77 69v114q-60 -46 -106 -46h-8q-87 0 -87 78v340q0 78 87 78h8q46 0 106 -46v42h14zM251 99v373q-61 49 -105 49h-8q-74 0 -74 -66v-338q0 -66 74 -66h8q26 0 48 10.5t57 37.5z" />
    <glyph glyph-name="h" unicode="h" horiz-adv-x="327" 
d="M57 0v710h14v-223q35 26 57.5 36.5t49.5 10.5h8q86 0 86 -78v-456h-14v455q0 66 -73 66h-8q-25 0 -47.5 -10.5t-58.5 -38.5v-472h-14z" />
    <glyph glyph-name="i" unicode="i" horiz-adv-x="132" 
d="M58 615v55h16v-55h-16zM59 0v530h14v-530h-14z" />
    <glyph glyph-name="j" unicode="j" horiz-adv-x="142" 
d="M68 615v55h16v-55h-16zM83 530v-566q0 -40 -11.5 -57.5t-45.5 -17.5h-4v13h4q27 0 35 13.5t8 47.5v567h14z" />
    <glyph glyph-name="k" unicode="k" horiz-adv-x="277" 
d="M245 530h17l-177 -260l171 -270h-16l-169 268v-268h-14v710h14v-439zM71 271v-3l4 1z" />
    <glyph glyph-name="l" unicode="l" horiz-adv-x="132" 
d="M59 0v710h14v-710h-14z" />
    <glyph glyph-name="m" unicode="m" horiz-adv-x="512" 
d="M57 0v530h14v-43q35 26 57.5 36.5t49.5 10.5h5q62 0 76 -46q60 46 108 46h5q85 0 85 -75v-459h-14v458q0 63 -72 63h-5q-45 0 -103 -46q1 -5 1 -16v-459h-14v458q0 63 -68 63h-5q-25 0 -47.5 -10.5t-58.5 -38.5v-472h-14z" />
    <glyph glyph-name="n" unicode="n" horiz-adv-x="327" 
d="M57 0v530h14v-43q35 26 57.5 36.5t49.5 10.5h8q86 0 86 -78v-456h-14v455q0 66 -73 66h-8q-25 0 -47.5 -10.5t-58.5 -38.5v-472h-14z" />
    <glyph glyph-name="o" unicode="o" horiz-adv-x="324" 
d="M172 -4h-20q-102 0 -102 102v334q0 102 102 102h20q102 0 102 -102v-334q0 -102 -102 -102zM172 521h-20q-88 0 -88 -89v-334q0 -89 88 -89h20q88 0 88 89v334q0 89 -88 89z" />
    <glyph glyph-name="p" unicode="p" horiz-adv-x="324" 
d="M274 74q0 -78 -87 -78h-8q-27 0 -50 10.5t-58 36.5v-153h-14v640h14v-43q35 26 58 36.5t50 10.5h8q87 0 87 -78v-382zM260 455q0 66 -74 66h-8q-26 0 -48.5 -10.5t-58.5 -38.5v-413q36 -28 58.5 -39t48.5 -11h8q74 0 74 66v380z" />
    <glyph glyph-name="q" unicode="q" horiz-adv-x="324" 
d="M267 530v-640h-14v153q-35 -26 -58 -36.5t-50 -10.5h-8q-87 0 -87 78v382q0 78 87 78h8q27 0 50 -10.5t58 -36.5v43h14zM253 58v413q-36 28 -58.5 39t-48.5 11h-8q-74 0 -74 -66v-380q0 -66 74 -66h8q26 0 48.5 10.5t58.5 38.5z" />
    <glyph glyph-name="r" unicode="r" horiz-adv-x="192" 
d="M57 0v530h14v-46q46 47 102 50v-16q-60 -4 -102 -51v-467h-14z" />
    <glyph glyph-name="s" unicode="s" horiz-adv-x="311" 
d="M245 361v83q0 77 -82 77h-16q-82 0 -82 -77v-53q0 -56 48 -85l93 -60q55 -36 55 -96v-64q0 -90 -96 -90h-19q-96 0 -96 90v88h14v-88q0 -77 82 -77h19q82 0 82 77v63q0 56 -48 85l-93 60q-55 36 -55 96v54q0 90 96 90h16q96 0 96 -90v-83h-14z" />
    <glyph glyph-name="t" unicode="t" horiz-adv-x="175" 
d="M87 518v-518h-14v518h-46v12h46v90h14v-90h79v-12h-79z" />
    <glyph glyph-name="u" unicode="u" horiz-adv-x="327" 
d="M270 530v-530h-14v43q-35 -26 -57.5 -36.5t-49.5 -10.5h-8q-86 0 -86 78v456h14v-455q0 -66 73 -66h8q25 0 47.5 10.5t58.5 38.5v472h14z" />
    <glyph glyph-name="v" unicode="v" horiz-adv-x="298" 
d="M156 -4h-14l-112 534h14l105 -505l105 505h14z" />
    <glyph glyph-name="w" unicode="w" horiz-adv-x="443" 
d="M309 -4l-87 505l-87 -505h-14l-97 534h14l90 -500l87 500h14l86 -502l88 502h14l-94 -534h-14z" />
    <glyph glyph-name="x" unicode="x" horiz-adv-x="276" 
d="M40 0h-14l104 267l-102 263h14l96 -249l96 249h14l-103 -262l105 -268h-14l-98 254z" />
    <glyph glyph-name="y" unicode="y" horiz-adv-x="296" 
d="M135 -110h-14l23 107l-117 533h14l110 -506l104 506h14z" />
    <glyph glyph-name="z" unicode="z" horiz-adv-x="232" 
d="M188 517h-163v13h176v-13l-163 -504h169v-13h-182v13z" />
    <glyph glyph-name="braceleft" unicode="{" horiz-adv-x="230" 
d="M108 159v102q0 43 -11 59t-49 23l-7 1v12l7 1q38 7 49 23t11 59v102q0 79 12.5 109.5t65.5 85.5l10 -6q-51 -55 -62.5 -84t-11.5 -105v-102q0 -45 -12.5 -63.5t-44.5 -25.5q32 -7 44.5 -25.5t12.5 -63.5v-102q0 -76 11.5 -105t62.5 -84l-10 -6q-53 55 -65.5 85.5
t-12.5 109.5z" />
    <glyph glyph-name="bar" unicode="|" horiz-adv-x="270" 
d="M142 763v-830h-14v830h14z" />
    <glyph glyph-name="braceright" unicode="}" horiz-adv-x="230" 
d="M122 261v-102q0 -79 -12.5 -109.5t-65.5 -85.5l-10 6q51 55 62.5 84t11.5 105v102q0 45 12.5 63.5t44.5 25.5q-32 7 -44.5 25.5t-12.5 63.5v102q0 76 -11.5 105t-62.5 84l10 6q53 -55 65.5 -85.5t12.5 -109.5v-102q0 -43 11 -59t49 -23l7 -1v-12l-7 -1q-38 -7 -49 -23
t-11 -59z" />
    <glyph glyph-name="asciitilde" unicode="~" horiz-adv-x="314" 
d="M29 328v16q35 37 68 37h3q21 0 46 -13l29 -15q22 -11 39 -11h3q29 0 68 39v-16q-35 -37 -68 -37h-3q-20 0 -46 13l-29 15q-22 11 -39 11h-3q-29 0 -68 -39z" />
    <glyph glyph-name="uni00A0" unicode="&#xa0;" horiz-adv-x="120" 
 />
    <glyph glyph-name="exclamdown" unicode="&#xa1;" horiz-adv-x="146" 
d="M78 554l2 -174v-380h-14v380l2 174h10zM81 700v-61h-16v61h16z" />
    <glyph glyph-name="cent" unicode="&#xa2;" horiz-adv-x="323" 
d="M256 428v74q0 42 -21.5 66t-65.5 25v-482q88 0 88 91v89h14v-89q0 -104 -102 -104v-101h-14v101h-1q-101 0 -101 104v300q0 102 102 104v97h14v-97q101 -2 101 -104v-74h-14zM67 202q0 -91 88 -91v482q-88 -1 -88 -91v-300z" />
    <glyph glyph-name="sterling" unicode="&#xa3;" horiz-adv-x="369" 
d="M44 308v13h47v280q0 50 25.5 77t72.5 27h29q47 0 72.5 -27t25.5 -77v-134h-14v134q0 44 -22 67.5t-62 23.5h-29q-41 0 -62.5 -23.5t-21.5 -67.5v-280h148v-13h-148v-295h216v-13h-277v13h47v295h-47z" />
    <glyph glyph-name="yen" unicode="&#xa5;" horiz-adv-x="339" 
d="M53 268h110v2l-122 430h14l115 -409l114 409h14l-121 -430v-2h108v-12h-108v-87h108v-12h-108v-157h-14v157h-110v12h110v87h-110v12z" />
    <glyph glyph-name="section" unicode="&#xa7;" horiz-adv-x="337" 
d="M227 271q31 -14 43 -32.5t12 -56.5v-87q0 -100 -106 -100h-19q-105 0 -105 100v77h13v-77q0 -87 92 -87h19q92 0 92 87v86q0 34 -10 49.5t-39 28.5l-139 66q-17 7 -17 24zM110 429q-31 14 -43 32.5t-12 56.5v87q0 100 106 100h19q105 0 105 -100v-77h-13v77q0 87 -92 87
h-19q-92 0 -92 -87v-86q0 -34 10 -49.5t39 -28.5l139 -66q11 -5 14 -9.5t3 -14.5z" />
    <glyph glyph-name="dieresis" unicode="&#xa8;" 
d="M293 585v64h13v-64h-13zM207 649v-64h-13v64h13z" />
    <glyph glyph-name="copyright" unicode="&#xa9;" horiz-adv-x="496" 
d="M436 541v-381q0 -90 -32 -127t-114 -37h-84q-82 0 -114 37t-32 127v381q0 90 32 127t114 37h84q82 0 114 -37t32 -127zM424 160v381q0 84 -28.5 118.5t-105.5 34.5h-84q-77 0 -105.5 -34.5t-28.5 -118.5v-381q0 -84 28.5 -118.5t105.5 -34.5h84q77 0 105.5 34.5
t28.5 118.5zM320 260h13v-89q0 -75 -74 -75h-18q-75 0 -75 75v358q0 75 75 75h17q74 0 74 -75v-88h-13v88q0 62 -61 62h-17q-62 0 -62 -62v-358q0 -62 62 -62h18q61 0 61 62v89z" />
    <glyph glyph-name="ordfeminine" unicode="&#xaa;" horiz-adv-x="229" 
d="M45 469v32q0 26 10.5 39t38.5 25l70 28v55q0 45 -48 45h-6q-51 0 -51 -45v-29h-12v29q0 57 63 57h6q60 0 60 -57v-226h-12v26q-39 -29 -64 -29h-3q-52 0 -52 50zM98 431q26 0 66 29v121l-66 -27q-24 -10 -32.5 -21t-8.5 -32v-32q0 -38 41 -38z" />
    <glyph glyph-name="guillemotleft" unicode="&#xab;" horiz-adv-x="213" 
d="M39 280l51 143h10l-45 -143l45 -143h-10zM120 280l47 143h10l-41 -143l41 -143h-10z" />
    <glyph glyph-name="registered" unicode="&#xae;" horiz-adv-x="316" 
d="M272 605v-168q0 -56 -16.5 -78t-66.5 -22h-62q-50 0 -66.5 22t-16.5 78v168q0 56 16.5 78t66.5 22h56q51 0 70 -22.5t19 -77.5zM261 437v168q0 49 -17 69.5t-61 20.5h-56q-43 0 -57.5 -20t-14.5 -70v-168q0 -50 14.5 -70t57.5 -20h62q43 0 57.5 20t14.5 70zM212 596v-24
q0 -50 -38 -57q19 -2 28.5 -14t9.5 -41v-62h-12v62q0 30 -11.5 39.5t-44.5 9.5h-23v-111h-12v248h32q39 0 55 -10t16 -40zM200 572v24q0 23 -13.5 31t-45.5 8h-20v-114h22q33 0 45 10.5t12 40.5z" />
    <glyph glyph-name="macron" unicode="&#xaf;" 
d="M173 631h154v-12h-154v12z" />
    <glyph glyph-name="degree" unicode="&#xb0;" horiz-adv-x="270" 
d="M220 630v-163q0 -74 -67 -74h-35q-68 0 -68 74v163q0 75 68 75h38q64 0 64 -75zM207 467v163q0 33 -11.5 47.5t-39.5 14.5h-38q-55 0 -55 -62v-163q0 -32 13 -46.5t42 -14.5h34q29 0 42 14.5t13 46.5z" />
    <glyph glyph-name="plusminus" unicode="&#xb1;" horiz-adv-x="314" 
d="M150 292v120h-120v14h120v120h14v-120h120v-14h-120v-120h-14zM32 191h250v-13h-250v13z" />
    <glyph glyph-name="acute" unicode="&#xb4;" 
d="M240 585l47 93h17l-53 -93h-11z" />
    <glyph glyph-name="paragraph" unicode="&#xb6;" horiz-adv-x="370" 
d="M312 0h-14v686h-72v-686h-30q-67 0 -101.5 41t-34.5 111v396q0 70 34.5 111t101.5 41h116v-700zM74 548v-396q0 -64 31 -101t91 -37h16v672h-16q-60 0 -91 -37t-31 -101z" />
    <glyph glyph-name="periodcentered" unicode="&#xb7;" horiz-adv-x="84" 
d="M50 325v-61h-16v61h16z" />
    <glyph glyph-name="cedilla" unicode="&#xb8;" 
d="M277 0l-30 -82h-16l35 82h11z" />
    <glyph glyph-name="ordmasculine" unicode="&#xba;" horiz-adv-x="237" 
d="M124 694h-13q-52 0 -52 -53v-157q0 -53 52 -53h13q52 0 52 53v157q0 53 -52 53zM124 419h-13q-64 0 -64 65v157q0 64 64 64h13q64 0 64 -64v-157q0 -65 -64 -65z" />
    <glyph glyph-name="guillemotright" unicode="&#xbb;" horiz-adv-x="213" 
d="M123 423l51 -143l-51 -143h-10l45 143l-45 143h10zM46 423l47 -143l-47 -143h-10l41 143l-41 143h10z" />
    <glyph glyph-name="questiondown" unicode="&#xbf;" horiz-adv-x="299" 
d="M122 332l-31 -38q-21 -26 -28.5 -43t-7.5 -43v-108q0 -87 88 -87h17q88 0 88 83v138h14v-138q0 -96 -102 -96h-17q-102 0 -102 100v108q0 29 8.5 48t33.5 50l31 39q18 23 23.5 37t5.5 39v139h14v-139q0 -28 -7 -45.5t-28 -43.5zM142 644v61h16v-61h-16z" />
    <glyph glyph-name="Agrave" unicode="&#xc0;" horiz-adv-x="354" 
d="M316 0h-14l-31 169h-188l-31 -169h-14l130 704h18zM177 682l-92 -500h183zM128 818l53 -73h-12l-59 73h18z" />
    <glyph glyph-name="Aacute" unicode="&#xc1;" horiz-adv-x="354" 
d="M316 0h-14l-31 169h-188l-31 -169h-14l130 704h18zM177 682l-92 -500h183zM173 745l53 73h18l-59 -73h-12z" />
    <glyph glyph-name="Acircumflex" unicode="&#xc2;" horiz-adv-x="354" 
d="M316 0h-14l-31 169h-188l-31 -169h-14l130 704h18zM177 682l-92 -500h183zM186 826l60 -81h-10l-59 70l-58 -70h-11l61 81h17z" />
    <glyph glyph-name="Atilde" unicode="&#xc3;" horiz-adv-x="354" 
d="M316 0h-14l-31 169h-188l-31 -169h-14l130 704h18zM177 682l-92 -500h183zM118 827h6q12 0 30 -15l52 -44q16 -13 24 -13h5q15 0 15 19v52h11v-57q0 -25 -25 -25h-6q-12 0 -30 15l-52 44q-16 13 -24 13h-5q-15 0 -15 -19v-52h-11v57q0 25 25 25z" />
    <glyph glyph-name="Adieresis" unicode="&#xc4;" horiz-adv-x="354" 
d="M186 704l130 -704h-14l-31 169h-188l-31 -169h-14l130 704h18zM177 682l-92 -500h183zM219 745v58h12v-58h-12zM135 803v-58h-12v58h12z" />
    <glyph glyph-name="Aring" unicode="&#xc5;" horiz-adv-x="346" 
d="M259 695v-3q0 -25 -14 -35.5t-45 -10.5h-15l127 -646h-14l-33 169h-184l-33 -169h-14l126 646h-14q-31 0 -45 10.5t-14 35.5v3q0 25 14 35.5t45 10.5h54q31 0 45 -10.5t14 -35.5zM173 643l-90 -461h179zM248 692v3q0 20 -11 27.5t-38 7.5h-52q-27 0 -38 -7.5t-11 -27.5
v-3q0 -20 11 -27.5t38 -7.5h52q27 0 38 7.5t11 27.5z" />
    <glyph glyph-name="AE" unicode="&#xc6;" horiz-adv-x="471" 
d="M218 700h202v-13h-176v-325h171v-13h-171v-336h178v-13h-192v169h-141l-45 -169h-14zM92 182h138v514z" />
    <glyph glyph-name="Ccedilla" unicode="&#xc7;" horiz-adv-x="348" 
d="M284 254h14v-155q0 -104 -106 -104h-5l-28 -77h-16l33 77h-14q-106 0 -106 104v502q0 104 106 104h29q106 0 106 -104v-134h-14v134q0 91 -92 91h-29q-92 0 -92 -91v-502q0 -91 92 -91h30q92 0 92 91v155z" />
    <glyph glyph-name="Egrave" unicode="&#xc8;" horiz-adv-x="304" 
d="M63 700h190v-13h-176v-325h171v-13h-171v-336h178v-13h-192v700zM110 818l53 -73h-12l-59 73h18z" />
    <glyph glyph-name="Eacute" unicode="&#xc9;" horiz-adv-x="304" 
d="M63 700h190v-13h-176v-325h171v-13h-171v-336h178v-13h-192v700zM155 745l53 73h18l-59 -73h-12z" />
    <glyph glyph-name="Ecircumflex" unicode="&#xca;" horiz-adv-x="304" 
d="M63 700h190v-13h-176v-325h171v-13h-171v-336h178v-13h-192v700zM168 826l60 -81h-10l-59 70l-58 -70h-11l61 81h17z" />
    <glyph glyph-name="Edieresis" unicode="&#xcb;" horiz-adv-x="304" 
d="M63 700h190v-13h-176v-325h171v-13h-171v-336h178v-13h-192v700zM201 745v58h12v-58h-12zM117 803v-58h-12v58h12z" />
    <glyph glyph-name="Igrave" unicode="&#xcc;" horiz-adv-x="144" 
d="M79 700v-700h-14v700h14zM23 818l53 -73h-12l-59 73h18z" />
    <glyph glyph-name="Iacute" unicode="&#xcd;" horiz-adv-x="144" 
d="M79 700v-700h-14v700h14zM68 745l53 73h18l-59 -73h-12z" />
    <glyph glyph-name="Icircumflex" unicode="&#xce;" horiz-adv-x="144" 
d="M79 700v-700h-14v700h14zM81 826l60 -81h-10l-59 70l-58 -70h-11l61 81h17z" />
    <glyph glyph-name="Idieresis" unicode="&#xcf;" horiz-adv-x="144" 
d="M79 700v-700h-14v700h14zM114 745v58h12v-58h-12zM30 803v-58h-12v58h12z" />
    <glyph glyph-name="Eth" unicode="&#xd0;" horiz-adv-x="370" 
d="M76 0v348h-52v14h52v338h102q136 0 136 -136v-428q0 -136 -136 -136h-102zM90 686v-324h98v-14h-98v-334h88q122 0 122 122v428q0 122 -122 122h-88z" />
    <glyph glyph-name="Ntilde" unicode="&#xd1;" horiz-adv-x="369" 
d="M306 0h-21l-208 674v-216l-1 -458h-13v700h21l208 -677v203l1 474h13v-700zM125 827h6q13 0 30 -15l52 -44q16 -13 24 -13h5q15 0 15 19v52h11v-57q0 -25 -25 -25h-6q-13 0 -30 15l-52 44q-16 13 -24 13h-5q-15 0 -15 -19v-52h-11v57q0 25 25 25z" />
    <glyph glyph-name="Ograve" unicode="&#xd2;" horiz-adv-x="362" 
d="M306 99q0 -104 -106 -104h-38q-106 0 -106 104v502q0 104 106 104h38q106 0 106 -104v-502zM292 601q0 91 -92 91h-38q-92 0 -92 -91v-502q0 -91 92 -91h38q92 0 92 91v502zM132 818l53 -73h-12l-59 73h18z" />
    <glyph glyph-name="Oacute" unicode="&#xd3;" horiz-adv-x="362" 
d="M306 99q0 -104 -106 -104h-38q-106 0 -106 104v502q0 104 106 104h38q106 0 106 -104v-502zM292 601q0 91 -92 91h-38q-92 0 -92 -91v-502q0 -91 92 -91h38q92 0 92 91v502zM177 745l53 73h18l-59 -73h-12z" />
    <glyph glyph-name="Ocircumflex" unicode="&#xd4;" horiz-adv-x="362" 
d="M306 99q0 -104 -106 -104h-38q-106 0 -106 104v502q0 104 106 104h38q106 0 106 -104v-502zM292 601q0 91 -92 91h-38q-92 0 -92 -91v-502q0 -91 92 -91h38q92 0 92 91v502zM190 826l60 -81h-10l-59 70l-58 -70h-11l61 81h17z" />
    <glyph glyph-name="Otilde" unicode="&#xd5;" horiz-adv-x="362" 
d="M306 99q0 -104 -106 -104h-38q-106 0 -106 104v502q0 104 106 104h38q106 0 106 -104v-502zM292 601q0 91 -92 91h-38q-92 0 -92 -91v-502q0 -91 92 -91h38q92 0 92 91v502zM122 827h6q12 0 30 -15l52 -44q16 -13 24 -13h5q15 0 15 19v52h11v-57q0 -25 -25 -25h-6
q-12 0 -30 15l-52 44q-16 13 -24 13h-5q-15 0 -15 -19v-52h-11v57q0 25 25 25z" />
    <glyph glyph-name="Odieresis" unicode="&#xd6;" horiz-adv-x="362" 
d="M306 99q0 -104 -106 -104h-38q-106 0 -106 104v502q0 104 106 104h38q106 0 106 -104v-502zM292 601q0 91 -92 91h-38q-92 0 -92 -91v-502q0 -91 92 -91h38q92 0 92 91v502zM223 745v58h12v-58h-12zM139 803v-58h-12v58h12z" />
    <glyph glyph-name="multiply" unicode="&#xd7;" horiz-adv-x="314" 
d="M249 255l-91 91l-92 -93l-10 10l92 92l-90 91l10 10l90 -91l91 92l10 -10l-91 -91l91 -91z" />
    <glyph glyph-name="Oslash" unicode="&#xd8;" horiz-adv-x="362" 
d="M306 99q0 -104 -106 -104h-38q-106 0 -106 104v502q0 104 106 104h38q106 0 106 -104v-502zM292 601q0 27 -9 46l-197 -608q23 -31 76 -31h38q92 0 92 91v502zM70 99q0 -25 8 -46l197 608q-23 31 -75 31h-38q-92 0 -92 -91v-502z" />
    <glyph glyph-name="Ugrave" unicode="&#xd9;" horiz-adv-x="365" 
d="M304 700v-598q0 -107 -108 -107h-27q-108 0 -108 107v598h14v-598q0 -94 94 -94h27q94 0 94 94v598h14zM133 818l53 -73h-12l-59 73h18z" />
    <glyph glyph-name="Uacute" unicode="&#xda;" horiz-adv-x="365" 
d="M304 700v-598q0 -107 -108 -107h-27q-108 0 -108 107v598h14v-598q0 -94 94 -94h27q94 0 94 94v598h14zM178 745l53 73h18l-59 -73h-12z" />
    <glyph glyph-name="Ucircumflex" unicode="&#xdb;" horiz-adv-x="365" 
d="M304 700v-598q0 -107 -108 -107h-27q-108 0 -108 107v598h14v-598q0 -94 94 -94h27q94 0 94 94v598h14zM191 826l60 -81h-10l-59 70l-58 -70h-11l61 81h17z" />
    <glyph glyph-name="Udieresis" unicode="&#xdc;" horiz-adv-x="365" 
d="M304 700v-598q0 -107 -108 -107h-27q-108 0 -108 107v598h14v-598q0 -94 94 -94h27q94 0 94 94v598h14zM224 745v58h12v-58h-12zM140 803v-58h-12v58h12z" />
    <glyph glyph-name="Yacute" unicode="&#xdd;" horiz-adv-x="297" 
d="M277 700l-121 -450v-250h-14v247l-122 453h14l115 -432l114 432h14zM144 745l53 73h18l-59 -73h-12z" />
    <glyph glyph-name="Thorn" unicode="&#xde;" horiz-adv-x="313" 
d="M77 163v-163h-14v700h14v-158h84q53 0 83.5 -27t30.5 -77v-157q0 -38 -12.5 -63.5t-33.5 -36t-38 -14.5t-35 -4h-79zM261 438q0 44 -27 67.5t-73 23.5h-84v-353h78q106 0 106 105v157z" />
    <glyph glyph-name="germandbls" unicode="&#xdf;" horiz-adv-x="332" 
d="M280 254v-150q0 -104 -104 -104h-57v13h57q91 0 91 91v150q0 104 -101 104h-45v13h44q101 0 101 106v129q0 91 -91 91h-10q-91 0 -91 -91v-606h-13v606q0 104 104 104h10q104 0 104 -104v-129q0 -95 -71 -112q72 -16 72 -111z" />
    <glyph glyph-name="agrave" unicode="&#xe0;" horiz-adv-x="312" 
d="M49 74v99q0 39 17 61t61 40l116 48v121q0 78 -82 78h-8q-86 0 -86 -78v-74h-14v74q0 91 100 91h8q96 0 96 -91v-443h-14v41q-62 -45 -106 -45h-5q-83 0 -83 78zM138 9q41 0 105 47v252l-112 -47q-38 -16 -53 -35t-15 -53v-98q0 -66 70 -66h5zM115 678l47 -93h-11l-53 93
h17z" />
    <glyph glyph-name="aacute" unicode="&#xe1;" horiz-adv-x="312" 
d="M49 74v99q0 39 17 61t61 40l116 48v121q0 78 -82 78h-8q-86 0 -86 -78v-74h-14v74q0 91 100 91h8q96 0 96 -91v-443h-14v41q-62 -45 -106 -45h-5q-83 0 -83 78zM138 9q41 0 105 47v252l-112 -47q-38 -16 -53 -35t-15 -53v-98q0 -66 70 -66h5zM153 585l47 93h17l-53 -93
h-11z" />
    <glyph glyph-name="acircumflex" unicode="&#xe2;" horiz-adv-x="312" 
d="M49 74v99q0 39 17 61t61 40l116 48v121q0 78 -82 78h-8q-86 0 -86 -78v-74h-14v74q0 91 100 91h8q96 0 96 -91v-443h-14v41q-62 -45 -106 -45h-5q-83 0 -83 78zM138 9q41 0 105 47v252l-112 -47q-38 -16 -53 -35t-15 -53v-98q0 -66 70 -66h5zM167 678l56 -93h-10l-55 80
l-54 -80h-11l57 93h17z" />
    <glyph glyph-name="atilde" unicode="&#xe3;" horiz-adv-x="312" 
d="M49 74v99q0 39 17 61t61 40l116 48v121q0 78 -82 78h-8q-86 0 -86 -78v-74h-14v74q0 91 100 91h8q96 0 96 -91v-443h-14v41q-62 -45 -106 -45h-5q-83 0 -83 78zM138 9q41 0 105 47v252l-112 -47q-38 -16 -53 -35t-15 -53v-98q0 -66 70 -66h5zM105 661h6q15 0 29 -13
l47 -44q9 -8 20 -8h4q13 0 13 18v47h11v-50q0 -26 -23 -26h-6q-15 0 -29 13l-47 44q-9 8 -20 8h-4q-13 0 -13 -18v-47h-11v49q0 27 23 27z" />
    <glyph glyph-name="adieresis" unicode="&#xe4;" horiz-adv-x="312" 
d="M49 74v99q0 39 17 61t61 40l116 48v121q0 78 -82 78h-8q-86 0 -86 -78v-74h-14v74q0 91 100 91h8q96 0 96 -91v-443h-14v41q-62 -45 -106 -45h-5q-83 0 -83 78zM138 9q41 0 105 47v252l-112 -47q-38 -16 -53 -35t-15 -53v-98q0 -66 70 -66h5zM201 585v64h13v-64h-13z
M115 649v-64h-13v64h13z" />
    <glyph glyph-name="aring" unicode="&#xe5;" horiz-adv-x="312" 
d="M49 74v99q0 39 17 61t61 40l116 48v121q0 78 -82 78h-8q-86 0 -86 -78v-74h-14v74q0 91 100 91h8q96 0 96 -91v-443h-14v41q-62 -45 -106 -45h-5q-83 0 -83 78zM138 9q41 0 105 47v252l-112 -47q-38 -16 -53 -35t-15 -53v-98q0 -66 70 -66h5zM232 639v-3q0 -26 -13.5 -37
t-45.5 -11h-30q-32 0 -45.5 11t-13.5 37v3q0 26 13.5 37t45.5 11h30q32 0 45.5 -11t13.5 -37zM221 636v3q0 20 -11 28.5t-37 8.5h-30q-26 0 -37 -8.5t-11 -28.5v-3q0 -20 10.5 -28.5t37.5 -8.5h30q26 0 37 8.5t11 28.5z" />
    <glyph glyph-name="ae" unicode="&#xe6;" horiz-adv-x="510" 
d="M347 534h9q104 0 104 -104v-174h-203v-156q0 -91 90 -91h9q90 0 90 91v70h14v-70q0 -104 -104 -104h-9q-74 0 -94 51q-40 -30 -64.5 -40.5t-51.5 -10.5h-5q-83 0 -83 78v105q0 37 17.5 58t60.5 39l116 48v119q0 78 -82 78h-8q-86 0 -86 -78v-74h-14v74q0 91 100 91h8
q74 0 91 -57q20 57 95 57zM257 430v-161h189v161q0 91 -90 91h-9q-90 0 -90 -91zM248 59q-5 20 -5 41v210l-112 -47q-37 -16 -52.5 -34t-15.5 -50v-104q0 -66 70 -66h5q42 0 110 50z" />
    <glyph glyph-name="ccedilla" unicode="&#xe7;" horiz-adv-x="320" 
d="M255 356v76q0 89 -88 89h-15q-88 0 -88 -89v-334q0 -89 88 -89h16q88 0 88 89v91h14v-91q0 -100 -101 -102l-28 -78h-16l33 78h-6q-102 0 -102 102v334q0 102 102 102h15q102 0 102 -102v-76h-14z" />
    <glyph glyph-name="egrave" unicode="&#xe8;" horiz-adv-x="317" 
d="M267 256h-203v-156q0 -91 90 -91h9q90 0 90 91v62h14v-62q0 -104 -104 -104h-9q-104 0 -104 104v330q0 104 104 104h9q104 0 104 -104v-174zM64 430v-161h189v161q0 91 -90 91h-9q-90 0 -90 -91zM115 678l47 -93h-11l-53 93h17z" />
    <glyph glyph-name="eacute" unicode="&#xe9;" horiz-adv-x="317" 
d="M267 256h-203v-156q0 -91 90 -91h9q90 0 90 91v62h14v-62q0 -104 -104 -104h-9q-104 0 -104 104v330q0 104 104 104h9q104 0 104 -104v-174zM64 430v-161h189v161q0 91 -90 91h-9q-90 0 -90 -91zM153 585l47 93h17l-53 -93h-11z" />
    <glyph glyph-name="ecircumflex" unicode="&#xea;" horiz-adv-x="317" 
d="M267 256h-203v-156q0 -91 90 -91h9q90 0 90 91v62h14v-62q0 -104 -104 -104h-9q-104 0 -104 104v330q0 104 104 104h9q104 0 104 -104v-174zM64 430v-161h189v161q0 91 -90 91h-9q-90 0 -90 -91zM167 678l56 -93h-10l-55 80l-54 -80h-11l57 93h17z" />
    <glyph glyph-name="edieresis" unicode="&#xeb;" horiz-adv-x="317" 
d="M267 256h-203v-156q0 -91 90 -91h9q90 0 90 91v62h14v-62q0 -104 -104 -104h-9q-104 0 -104 104v330q0 104 104 104h9q104 0 104 -104v-174zM64 430v-161h189v161q0 91 -90 91h-9q-90 0 -90 -91zM201 585v64h13v-64h-13zM115 649v-64h-13v64h13z" />
    <glyph glyph-name="igrave" unicode="&#xec;" horiz-adv-x="132" 
d="M59 0v530h14v-530h-14zM23 678l47 -93h-11l-53 93h17z" />
    <glyph glyph-name="iacute" unicode="&#xed;" horiz-adv-x="132" 
d="M59 0v530h14v-530h-14zM61 585l47 93h17l-53 -93h-11z" />
    <glyph glyph-name="icircumflex" unicode="&#xee;" horiz-adv-x="132" 
d="M59 0v530h14v-530h-14zM75 678l56 -93h-10l-55 80l-54 -80h-11l57 93h17z" />
    <glyph glyph-name="idieresis" unicode="&#xef;" horiz-adv-x="132" 
d="M59 0v530h14v-530h-14zM109 585v64h13v-64h-13zM23 649v-64h-13v64h13z" />
    <glyph glyph-name="eth" unicode="&#xf0;" horiz-adv-x="331" 
d="M197 721l-33 -54l35 -16q49 -22 62 -42t13 -76v-435q0 -102 -102 -102h-20q-102 0 -102 102v332q0 104 106 104h5q76 0 99 -45v44q0 50 -11.5 68.5t-54.5 37.5l-37 16l-30 -49h-14l33 54l-64 29l6 12l65 -29l30 49h14zM170 521h-16q-90 0 -90 -91v-332q0 -89 88 -89h20
q88 0 88 89v333q0 90 -90 90z" />
    <glyph glyph-name="ntilde" unicode="&#xf1;" horiz-adv-x="327" 
d="M57 0v530h14v-43q35 26 57.5 36.5t49.5 10.5h8q86 0 86 -78v-456h-14v455q0 66 -73 66h-8q-25 0 -47.5 -10.5t-58.5 -38.5v-472h-14zM109 661h6q15 0 29 -13l47 -44q9 -8 20 -8h4q13 0 13 18v47h11v-50q0 -26 -23 -26h-6q-15 0 -29 13l-47 44q-9 8 -20 8h-4
q-13 0 -13 -18v-47h-11v49q0 27 23 27z" />
    <glyph glyph-name="ograve" unicode="&#xf2;" horiz-adv-x="324" 
d="M172 -4h-20q-102 0 -102 102v334q0 102 102 102h20q102 0 102 -102v-334q0 -102 -102 -102zM172 521h-20q-88 0 -88 -89v-334q0 -89 88 -89h20q88 0 88 89v334q0 89 -88 89zM119 678l47 -93h-11l-53 93h17z" />
    <glyph glyph-name="oacute" unicode="&#xf3;" horiz-adv-x="324" 
d="M172 -4h-20q-102 0 -102 102v334q0 102 102 102h20q102 0 102 -102v-334q0 -102 -102 -102zM172 521h-20q-88 0 -88 -89v-334q0 -89 88 -89h20q88 0 88 89v334q0 89 -88 89zM157 585l47 93h17l-53 -93h-11z" />
    <glyph glyph-name="ocircumflex" unicode="&#xf4;" horiz-adv-x="324" 
d="M172 -4h-20q-102 0 -102 102v334q0 102 102 102h20q102 0 102 -102v-334q0 -102 -102 -102zM172 521h-20q-88 0 -88 -89v-334q0 -89 88 -89h20q88 0 88 89v334q0 89 -88 89zM171 678l56 -93h-10l-55 80l-54 -80h-11l57 93h17z" />
    <glyph glyph-name="otilde" unicode="&#xf5;" horiz-adv-x="324" 
d="M172 -4h-20q-102 0 -102 102v334q0 102 102 102h20q102 0 102 -102v-334q0 -102 -102 -102zM172 521h-20q-88 0 -88 -89v-334q0 -89 88 -89h20q88 0 88 89v334q0 89 -88 89zM109 661h6q15 0 29 -13l47 -44q9 -8 20 -8h4q13 0 13 18v47h11v-50q0 -26 -23 -26h-6
q-15 0 -29 13l-47 44q-9 8 -20 8h-4q-13 0 -13 -18v-47h-11v49q0 27 23 27z" />
    <glyph glyph-name="odieresis" unicode="&#xf6;" horiz-adv-x="324" 
d="M172 -4h-20q-102 0 -102 102v334q0 102 102 102h20q102 0 102 -102v-334q0 -102 -102 -102zM172 521h-20q-88 0 -88 -89v-334q0 -89 88 -89h20q88 0 88 89v334q0 89 -88 89zM205 585v64h13v-64h-13zM119 649v-64h-13v64h13z" />
    <glyph glyph-name="divide" unicode="&#xf7;" horiz-adv-x="314" 
d="M30 362h254v-14h-254v14zM149 446v61h16v-61h-16zM149 203v61h16v-61h-16z" />
    <glyph glyph-name="oslash" unicode="&#xf8;" horiz-adv-x="324" 
d="M172 -4h-20q-102 0 -102 102v334q0 102 102 102h20q102 0 102 -102v-334q0 -102 -102 -102zM152 521q-88 0 -88 -89v-334q0 -37 14 -57l159 459q-22 21 -65 21h-20zM260 432q0 34 -14 56l-159 -458q21 -21 65 -21h20q88 0 88 89v334z" />
    <glyph glyph-name="ugrave" unicode="&#xf9;" horiz-adv-x="327" 
d="M270 530v-530h-14v43q-35 -26 -57.5 -36.5t-49.5 -10.5h-8q-86 0 -86 78v456h14v-455q0 -66 73 -66h8q25 0 47.5 10.5t58.5 38.5v472h14zM118 678l47 -93h-11l-53 93h17z" />
    <glyph glyph-name="uacute" unicode="&#xfa;" horiz-adv-x="327" 
d="M270 530v-530h-14v43q-35 -26 -57.5 -36.5t-49.5 -10.5h-8q-86 0 -86 78v456h14v-455q0 -66 73 -66h8q25 0 47.5 10.5t58.5 38.5v472h14zM156 585l47 93h17l-53 -93h-11z" />
    <glyph glyph-name="ucircumflex" unicode="&#xfb;" horiz-adv-x="327" 
d="M270 530v-530h-14v43q-35 -26 -57.5 -36.5t-49.5 -10.5h-8q-86 0 -86 78v456h14v-455q0 -66 73 -66h8q25 0 47.5 10.5t58.5 38.5v472h14zM170 678l56 -93h-10l-55 80l-54 -80h-11l57 93h17z" />
    <glyph glyph-name="udieresis" unicode="&#xfc;" horiz-adv-x="327" 
d="M270 530v-530h-14v43q-35 -26 -57.5 -36.5t-49.5 -10.5h-8q-86 0 -86 78v456h14v-455q0 -66 73 -66h8q25 0 47.5 10.5t58.5 38.5v472h14zM204 585v64h13v-64h-13zM118 649v-64h-13v64h13z" />
    <glyph glyph-name="yacute" unicode="&#xfd;" horiz-adv-x="296" 
d="M135 -110h-14l23 107l-117 533h14l110 -506l104 506h14zM144 585l47 93h17l-53 -93h-11z" />
    <glyph glyph-name="thorn" unicode="&#xfe;" horiz-adv-x="324" 
d="M57 709h14v-222q35 26 58 36.5t50 10.5h8q87 0 87 -78v-382q0 -78 -87 -78h-8q-27 0 -50 10.5t-58 36.5v-153h-14v819zM71 472v-413q36 -29 59.5 -39.5t51.5 -10.5q78 0 78 66v380q0 66 -78 66q-28 0 -51 -10.5t-60 -38.5z" />
    <glyph glyph-name="ydieresis" unicode="&#xff;" horiz-adv-x="296" 
d="M135 -110h-14l23 107l-117 533h14l110 -506l104 506h14zM106 649v-64h-13v64h13zM192 585v64h13v-64h-13z" />
    <glyph glyph-name="Amacron" unicode="&#x100;" horiz-adv-x="354" 
d="M316 0h-14l-31 169h-188l-31 -169h-14l130 704h18zM177 682l-92 -500h183zM100 785h154v-12h-154v12z" />
    <glyph glyph-name="amacron" unicode="&#x101;" horiz-adv-x="312" 
d="M49 74v99q0 39 17 61t61 40l116 48v121q0 78 -82 78h-8q-86 0 -86 -78v-74h-14v74q0 91 100 91h8q96 0 96 -91v-443h-14v41q-62 -45 -106 -45h-5q-83 0 -83 78zM138 9q41 0 105 47v252l-112 -47q-38 -16 -53 -35t-15 -53v-98q0 -66 70 -66h5zM81 631h154v-12h-154v12z
" />
    <glyph glyph-name="Abreve" unicode="&#x102;" horiz-adv-x="354" 
d="M186 704l130 -704h-14l-31 169h-188l-31 -169h-14l130 704h18zM177 682l-92 -500h183zM110 794v24h11v-24q0 -39 49 -39h15q49 0 49 39v24h11v-24q0 -50 -60 -50h-15q-60 0 -60 50z" />
    <glyph glyph-name="abreve" unicode="&#x103;" horiz-adv-x="312" 
d="M49 74v99q0 39 17 61t61 40l116 48v121q0 78 -82 78h-8q-86 0 -86 -78v-74h-14v74q0 91 100 91h8q96 0 96 -91v-443h-14v41q-62 -45 -106 -45h-5q-83 0 -83 78zM138 9q41 0 105 47v252l-112 -47q-38 -16 -53 -35t-15 -53v-98q0 -66 70 -66h5zM94 638v31h11v-31
q0 -43 48 -43h11q48 0 48 43v31h11v-31q0 -54 -59 -54h-11q-59 0 -59 54z" />
    <glyph glyph-name="Aogonek" unicode="&#x104;" horiz-adv-x="354" 
d="M186 704l130 -704h-2l-4 -10q-19 -42 -19 -48v-6q0 -14 15 -14h33v-12h-33q-28 0 -28 26v6q0 12 21 51l3 7l-31 169h-188l-31 -169h-14l130 704h18zM177 682l-92 -500h183z" />
    <glyph glyph-name="aogonek" unicode="&#x105;" horiz-adv-x="312" 
d="M49 74v99q0 39 17 61t61 40l116 48v121q0 78 -82 78h-8q-86 0 -86 -78v-74h-14v74q0 91 100 91h8q96 0 96 -91v-443h-2l-4 -10q-19 -42 -19 -48v-6q0 -14 15 -14h33v-12h-33q-28 0 -28 26v6q0 12 21 51l3 7v41q-62 -45 -106 -45h-5q-83 0 -83 78zM138 9q41 0 105 47v252
l-112 -47q-38 -16 -53 -35t-15 -53v-98q0 -66 70 -66h5z" />
    <glyph glyph-name="Cacute" unicode="&#x106;" horiz-adv-x="348" 
d="M284 254h14v-155q0 -104 -106 -104h-30q-106 0 -106 104v502q0 104 106 104h29q106 0 106 -104v-134h-14v134q0 91 -92 91h-29q-92 0 -92 -91v-502q0 -91 92 -91h30q92 0 92 91v155zM173 745l53 73h18l-59 -73h-12z" />
    <glyph glyph-name="cacute" unicode="&#x107;" horiz-adv-x="320" 
d="M255 356v76q0 89 -88 89h-15q-88 0 -88 -89v-334q0 -89 88 -89h16q88 0 88 89v91h14v-91q0 -102 -102 -102h-16q-102 0 -102 102v334q0 102 102 102h15q102 0 102 -102v-76h-14zM154 585l47 93h17l-53 -93h-11z" />
    <glyph glyph-name="Cdotaccent" unicode="&#x10a;" horiz-adv-x="348" 
d="M284 254h14v-155q0 -104 -106 -104h-30q-106 0 -106 104v502q0 104 106 104h29q106 0 106 -104v-134h-14v134q0 91 -92 91h-29q-92 0 -92 -91v-502q0 -91 92 -91h30q92 0 92 91v155zM183 806v-61h-13v61h13z" />
    <glyph glyph-name="cdotaccent" unicode="&#x10b;" horiz-adv-x="320" 
d="M255 356v76q0 89 -88 89h-15q-88 0 -88 -89v-334q0 -89 88 -89h16q88 0 88 89v91h14v-91q0 -102 -102 -102h-16q-102 0 -102 102v334q0 102 102 102h15q102 0 102 -102v-76h-14zM164 649v-64h-13v64h13z" />
    <glyph glyph-name="Ccaron" unicode="&#x10c;" horiz-adv-x="348" 
d="M284 254h14v-155q0 -104 -106 -104h-30q-106 0 -106 104v502q0 104 106 104h29q106 0 106 -104v-134h-14v134q0 91 -92 91h-29q-92 0 -92 -91v-502q0 -91 92 -91h30q92 0 92 91v155zM246 826l-60 -81h-17l-61 81h11l58 -71l59 71h10z" />
    <glyph glyph-name="ccaron" unicode="&#x10d;" horiz-adv-x="320" 
d="M255 356v76q0 89 -88 89h-15q-88 0 -88 -89v-334q0 -89 88 -89h16q88 0 88 89v91h14v-91q0 -102 -102 -102h-16q-102 0 -102 102v334q0 102 102 102h15q102 0 102 -102v-76h-14zM224 678l-56 -93h-17l-57 93h11l54 -81l55 81h10z" />
    <glyph glyph-name="Dcaron" unicode="&#x10e;" horiz-adv-x="357" 
d="M63 0v700h102q136 0 136 -136v-428q0 -136 -136 -136h-102zM77 686v-672h88q122 0 122 122v428q0 122 -122 122h-88zM243 826l-60 -81h-17l-61 81h11l58 -71l59 71h10z" />
    <glyph glyph-name="dcaron" unicode="&#x10f;" horiz-adv-x="324" 
d="M267 710v-710h-14v43q-35 -26 -58 -36.5t-50 -10.5h-8q-87 0 -87 78v382q0 78 87 78h8q27 0 50 -10.5t58 -36.5v223h14zM253 58v413q-36 28 -58.5 39t-48.5 11h-8q-74 0 -74 -66v-380q0 -66 74 -66h8q26 0 48.5 10.5t58.5 38.5zM309 592v113h13l-4 -113h-9z" />
    <glyph glyph-name="Dcroat" unicode="&#x110;" horiz-adv-x="370" 
d="M76 0v348h-52v14h52v338h102q136 0 136 -136v-428q0 -136 -136 -136h-102zM90 686v-324h98v-14h-98v-334h88q122 0 122 122v428q0 122 -122 122h-88z" />
    <glyph glyph-name="dcroat" unicode="&#x111;" horiz-adv-x="330" 
d="M267 710v-86h52v-12h-52v-612h-14v43q-35 -26 -58 -36.5t-50 -10.5h-8q-87 0 -87 78v382q0 78 87 78h8q27 0 50 -10.5t58 -36.5v125h-125v12h125v86h14zM253 58v413q-36 28 -58.5 39t-48.5 11h-8q-74 0 -74 -66v-380q0 -66 74 -66h8q26 0 48.5 10.5t58.5 38.5z" />
    <glyph glyph-name="Emacron" unicode="&#x112;" horiz-adv-x="304" 
d="M63 700h190v-13h-176v-325h171v-13h-171v-336h178v-13h-192v700zM82 785h154v-12h-154v12z" />
    <glyph glyph-name="emacron" unicode="&#x113;" horiz-adv-x="317" 
d="M267 256h-203v-156q0 -91 90 -91h9q90 0 90 91v62h14v-62q0 -104 -104 -104h-9q-104 0 -104 104v330q0 104 104 104h9q104 0 104 -104v-174zM64 430v-161h189v161q0 91 -90 91h-9q-90 0 -90 -91zM81 631h154v-12h-154v12z" />
    <glyph glyph-name="Ebreve" unicode="&#x114;" horiz-adv-x="304" 
d="M63 700h190v-13h-176v-325h171v-13h-171v-336h178v-13h-192v700zM92 794v24h11v-24q0 -39 49 -39h15q49 0 49 39v24h11v-24q0 -50 -60 -50h-15q-60 0 -60 50z" />
    <glyph glyph-name="ebreve" unicode="&#x115;" horiz-adv-x="317" 
d="M267 256h-203v-156q0 -91 90 -91h9q90 0 90 91v62h14v-62q0 -104 -104 -104h-9q-104 0 -104 104v330q0 104 104 104h9q104 0 104 -104v-174zM64 430v-161h189v161q0 91 -90 91h-9q-90 0 -90 -91zM94 638v31h11v-31q0 -43 48 -43h11q48 0 48 43v31h11v-31q0 -54 -59 -54
h-11q-59 0 -59 54z" />
    <glyph glyph-name="Edotaccent" unicode="&#x116;" horiz-adv-x="304" 
d="M63 700h190v-13h-176v-325h171v-13h-171v-336h178v-13h-192v700zM165 806v-61h-13v61h13z" />
    <glyph glyph-name="edotaccent" unicode="&#x117;" horiz-adv-x="317" 
d="M267 256h-203v-156q0 -91 90 -91h9q90 0 90 91v62h14v-62q0 -104 -104 -104h-9q-104 0 -104 104v330q0 104 104 104h9q104 0 104 -104v-174zM64 430v-161h189v161q0 91 -90 91h-9q-90 0 -90 -91zM163 649v-64h-13v64h13z" />
    <glyph glyph-name="Eogonek" unicode="&#x118;" horiz-adv-x="304" 
d="M63 700h190v-13h-176v-325h171v-13h-171v-336h178v-13h-2l-4 -10q-19 -42 -19 -48v-6q0 -14 15 -14h33v-12h-33q-28 0 -28 26v6q0 12 21 51l3 7h-178v700z" />
    <glyph glyph-name="eogonek" unicode="&#x119;" horiz-adv-x="317" 
d="M267 256h-203v-156q0 -91 90 -91h9q90 0 90 91v62h14v-62q0 -49 -22 -74q-9 -10 -18 -29q-21 -40 -21 -56t15 -16h33v-12h-33q-28 0 -28 26v4q0 17 27 64q-26 -11 -57 -11h-9q-104 0 -104 104v330q0 104 104 104h9q104 0 104 -104v-174zM64 430v-161h189v161q0 91 -90 91
h-9q-90 0 -90 -91z" />
    <glyph glyph-name="Ecaron" unicode="&#x11a;" horiz-adv-x="304" 
d="M63 700h190v-13h-176v-325h171v-13h-171v-336h178v-13h-192v700zM228 826l-60 -81h-17l-61 81h11l58 -71l59 71h10z" />
    <glyph glyph-name="ecaron" unicode="&#x11b;" horiz-adv-x="317" 
d="M267 256h-203v-156q0 -91 90 -91h9q90 0 90 91v62h14v-62q0 -104 -104 -104h-9q-104 0 -104 104v330q0 104 104 104h9q104 0 104 -104v-174zM64 430v-161h189v161q0 91 -90 91h-9q-90 0 -90 -91zM223 678l-56 -93h-17l-57 93h11l54 -81l55 81h10z" />
    <glyph glyph-name="Gbreve" unicode="&#x11e;" horiz-adv-x="356" 
d="M286 334h-112v13h126v-248q0 -104 -106 -104h-32q-106 0 -106 104v502q0 104 106 104h32q106 0 106 -104v-121h-14v121q0 91 -92 91h-32q-92 0 -92 -91v-502q0 -91 92 -91h32q92 0 92 91v235zM113 794v24h11v-24q0 -39 49 -39h15q49 0 49 39v24h11v-24q0 -50 -60 -50h-15
q-60 0 -60 50z" />
    <glyph glyph-name="gbreve" unicode="&#x11f;" horiz-adv-x="320" 
d="M265 530v-560q0 -82 -91 -82h-27q-93 0 -93 82v14h14v-14q0 -69 79 -69h27q77 0 77 69v114q-60 -46 -106 -46h-8q-87 0 -87 78v340q0 78 87 78h8q46 0 106 -46v42h14zM251 99v373q-61 49 -105 49h-8q-74 0 -74 -66v-338q0 -66 74 -66h8q26 0 48 10.5t57 37.5zM96 638v31
h11v-31q0 -43 48 -43h11q48 0 48 43v31h11v-31q0 -54 -59 -54h-11q-59 0 -59 54z" />
    <glyph glyph-name="Gdotaccent" unicode="&#x120;" horiz-adv-x="356" 
d="M286 334h-112v13h126v-248q0 -104 -106 -104h-32q-106 0 -106 104v502q0 104 106 104h32q106 0 106 -104v-121h-14v121q0 91 -92 91h-32q-92 0 -92 -91v-502q0 -91 92 -91h32q92 0 92 91v235zM186 806v-61h-13v61h13z" />
    <glyph glyph-name="gdotaccent" unicode="&#x121;" horiz-adv-x="320" 
d="M265 530v-560q0 -82 -91 -82h-27q-93 0 -93 82v14h14v-14q0 -69 79 -69h27q77 0 77 69v114q-60 -46 -106 -46h-8q-87 0 -87 78v340q0 78 87 78h8q46 0 106 -46v42h14zM251 99v373q-61 49 -105 49h-8q-74 0 -74 -66v-338q0 -66 74 -66h8q26 0 48 10.5t57 37.5zM165 649
v-64h-13v64h13z" />
    <glyph glyph-name="Gcommaaccent" unicode="&#x122;" horiz-adv-x="356" 
d="M286 334h-112v13h126v-248q0 -104 -106 -104h-32q-106 0 -106 104v502q0 104 106 104h32q106 0 106 -104v-121h-14v121q0 91 -92 91h-32q-92 0 -92 -91v-502q0 -91 92 -91h32q92 0 92 91v235zM189 -45v-39q0 -27 -16 -49l-10 -14l-6 4l7 11q14 24 15 37h-6v50h16z" />
    <glyph glyph-name="gcommaaccent" unicode="&#x123;" horiz-adv-x="320" 
d="M265 530v-560q0 -82 -91 -82h-27q-93 0 -93 82v14h14v-14q0 -69 79 -69h27q77 0 77 69v114q-60 -46 -106 -46h-8q-87 0 -87 78v340q0 78 87 78h8q46 0 106 -46v42h14zM251 99v373q-61 49 -105 49h-8q-74 0 -74 -66v-338q0 -66 74 -66h8q26 0 48 10.5t57 37.5zM150 585v39
q0 27 16 49l10 14l6 -4l-7 -11q-15 -23 -15 -37h6v-50h-16z" />
    <glyph glyph-name="Hbar" unicode="&#x126;" horiz-adv-x="391" 
d="M24 552v14h52v134h14v-135h211v135h14v-134h52v-14h-52v-552h-14v349h-211v-349h-14v552h-52zM90 362h211v191h-211v-191z" />
    <glyph glyph-name="hbar" unicode="&#x127;" horiz-adv-x="327" 
d="M57 0v612h-52v12h52v86h14v-86h125v-12h-125v-125q35 26 57.5 36.5t49.5 10.5h8q86 0 86 -78v-456h-14v455q0 66 -73 66h-8q-25 0 -47.5 -10.5t-58.5 -38.5v-472h-14z" />
    <glyph glyph-name="Imacron" unicode="&#x12a;" horiz-adv-x="144" 
d="M79 700v-700h-14v700h14zM-5 785h154v-12h-154v12z" />
    <glyph glyph-name="imacron" unicode="&#x12b;" horiz-adv-x="132" 
d="M59 0v530h14v-530h-14zM-11 631h154v-12h-154v12z" />
    <glyph glyph-name="Ibreve" unicode="&#x12c;" horiz-adv-x="144" 
d="M79 700v-700h-14v700h14zM5 794v24h11v-24q0 -39 49 -39h15q49 0 49 39v24h11v-24q0 -50 -60 -50h-15q-60 0 -60 50z" />
    <glyph glyph-name="ibreve" unicode="&#x12d;" horiz-adv-x="132" 
d="M59 0v530h14v-530h-14zM2 638v31h11v-31q0 -43 48 -43h11q48 0 48 43v31h11v-31q0 -54 -59 -54h-11q-59 0 -59 54z" />
    <glyph glyph-name="Iogonek" unicode="&#x12e;" horiz-adv-x="144" 
d="M79 700v-700h-2l-4 -10q-19 -42 -19 -48v-6q0 -14 15 -14h33v-12h-33q-28 0 -28 26v6q0 12 21 51l3 7v700h14z" />
    <glyph glyph-name="iogonek" unicode="&#x12f;" horiz-adv-x="132" 
d="M59 0v530h14v-530h-2l-4 -10q-19 -42 -19 -48v-6q0 -14 15 -14h33v-12h-33q-28 0 -28 26v6q0 12 21 51zM58 615v55h16v-55h-16z" />
    <glyph glyph-name="Idotaccent" unicode="&#x130;" horiz-adv-x="144" 
d="M79 700v-700h-14v700h14zM78 806v-61h-13v61h13z" />
    <glyph glyph-name="dotlessi" unicode="&#x131;" horiz-adv-x="132" 
d="M59 0v530h14v-530h-14z" />
    <glyph glyph-name="Kcommaaccent" unicode="&#x136;" horiz-adv-x="310" 
d="M286 0h-16l-193 352v-352h-14v700h14v-346l197 346h16l-199 -346zM168 -45v-39q0 -27 -16 -49l-10 -14l-6 4l7 11q14 24 15 37h-6v50h16z" />
    <glyph glyph-name="kcommaaccent" unicode="&#x137;" horiz-adv-x="277" 
d="M245 530h17l-177 -260l171 -270h-16l-169 268v-268h-14v710h14v-439zM153 -45v-39q0 -27 -16 -49l-10 -14l-6 4l7 11q14 24 15 37h-6v50h16zM71 271v-3l4 1z" />
    <glyph glyph-name="Lacute" unicode="&#x139;" horiz-adv-x="266" 
d="M63 700h14v-687h168v-13h-182v700zM65 745l53 73h18l-59 -73h-12z" />
    <glyph glyph-name="lacute" unicode="&#x13a;" horiz-adv-x="132" 
d="M59 0v710h14v-710h-14zM61 745l47 93h17l-53 -93h-11z" />
    <glyph glyph-name="Lcommaaccent" unicode="&#x13b;" horiz-adv-x="266" 
d="M63 700h14v-687h168v-13h-182v700zM157 -45v-39q0 -27 -16 -49l-10 -14l-6 4l7 11q14 24 15 37h-6v50h16z" />
    <glyph glyph-name="lcommaaccent" unicode="&#x13c;" horiz-adv-x="132" 
d="M59 0v710h14v-710h-14zM75 -45v-39q0 -27 -16 -49l-10 -14l-6 4l7 11q14 24 15 37h-6v50h16z" />
    <glyph glyph-name="Lcaron" unicode="&#x13d;" horiz-adv-x="285" 
d="M82 700h14v-687h168v-13h-182v700zM150 582v113h13l-4 -113h-9z" />
    <glyph glyph-name="lcaron" unicode="&#x13e;" horiz-adv-x="132" 
d="M59 0v710h14v-710h-14zM120 592v113h13l-4 -113h-9z" />
    <glyph glyph-name="Ldot" unicode="&#x13f;" horiz-adv-x="285" 
d="M215 373v-64h-13v64h13zM82 700h14v-687h168v-13h-182v700z" />
    <glyph glyph-name="ldot" unicode="&#x140;" horiz-adv-x="142" 
d="M145 377v-64h-13v64h13zM61 0v710h14v-710h-14z" />
    <glyph glyph-name="Lslash" unicode="&#x141;" horiz-adv-x="273" 
d="M70 700h14v-340l65 39v-14l-65 -39v-333h168v-13h-182v337l-58 -34v14l58 34v349z" />
    <glyph glyph-name="lslash" unicode="&#x142;" horiz-adv-x="150" 
d="M68 0v337l-58 -39v15l58 39v358h14v-348l59 41v-15l-59 -41v-347h-14z" />
    <glyph glyph-name="Nacute" unicode="&#x143;" horiz-adv-x="369" 
d="M285 0l-208 674v-216l-1 -458h-13v700h21l208 -677v203l1 474h13v-700h-21zM180 745l53 73h18l-59 -73h-12z" />
    <glyph glyph-name="nacute" unicode="&#x144;" horiz-adv-x="327" 
d="M57 0v530h14v-43q35 26 57.5 36.5t49.5 10.5h8q86 0 86 -78v-456h-14v455q0 66 -73 66h-8q-25 0 -47.5 -10.5t-58.5 -38.5v-472h-14zM157 585l47 93h17l-53 -93h-11z" />
    <glyph glyph-name="Ncommaaccent" unicode="&#x145;" horiz-adv-x="369" 
d="M285 0l-208 674v-216l-1 -458h-13v700h21l208 -677v203l1 474h13v-700h-21zM193 -45v-39q0 -27 -16 -49l-10 -14l-6 4l7 11q14 24 15 37h-6v50h16z" />
    <glyph glyph-name="ncommaaccent" unicode="&#x146;" horiz-adv-x="327" 
d="M57 0v530h14v-43q35 26 57.5 36.5t49.5 10.5h8q86 0 86 -78v-456h-14v455q0 66 -73 66h-8q-25 0 -47.5 -10.5t-58.5 -38.5v-472h-14zM171 -45v-39q0 -27 -16 -49l-10 -14l-6 4l7 11q14 24 15 37h-6v50h16z" />
    <glyph glyph-name="Ncaron" unicode="&#x147;" horiz-adv-x="369" 
d="M306 0h-21l-208 674v-216l-1 -458h-13v700h21l208 -677v203l1 474h13v-700zM253 826l-60 -81h-17l-61 81h11l58 -71l59 71h10z" />
    <glyph glyph-name="ncaron" unicode="&#x148;" horiz-adv-x="327" 
d="M57 0v530h14v-43q35 26 57.5 36.5t49.5 10.5h8q86 0 86 -78v-456h-14v455q0 66 -73 66h-8q-25 0 -47.5 -10.5t-58.5 -38.5v-472h-14zM227 678l-56 -93h-17l-57 93h11l54 -81l55 81h10z" />
    <glyph glyph-name="Omacron" unicode="&#x14c;" horiz-adv-x="362" 
d="M306 99q0 -104 -106 -104h-38q-106 0 -106 104v502q0 104 106 104h38q106 0 106 -104v-502zM292 601q0 91 -92 91h-38q-92 0 -92 -91v-502q0 -91 92 -91h38q92 0 92 91v502zM104 785h154v-12h-154v12z" />
    <glyph glyph-name="omacron" unicode="&#x14d;" horiz-adv-x="324" 
d="M172 -4h-20q-102 0 -102 102v334q0 102 102 102h20q102 0 102 -102v-334q0 -102 -102 -102zM172 521h-20q-88 0 -88 -89v-334q0 -89 88 -89h20q88 0 88 89v334q0 89 -88 89zM85 631h154v-12h-154v12z" />
    <glyph glyph-name="Obreve" unicode="&#x14e;" horiz-adv-x="362" 
d="M306 99q0 -104 -106 -104h-38q-106 0 -106 104v502q0 104 106 104h38q106 0 106 -104v-502zM292 601q0 91 -92 91h-38q-92 0 -92 -91v-502q0 -91 92 -91h38q92 0 92 91v502zM114 794v24h11v-24q0 -39 49 -39h15q49 0 49 39v24h11v-24q0 -50 -60 -50h-15q-60 0 -60 50z
" />
    <glyph glyph-name="obreve" unicode="&#x14f;" horiz-adv-x="324" 
d="M172 -4h-20q-102 0 -102 102v334q0 102 102 102h20q102 0 102 -102v-334q0 -102 -102 -102zM172 521h-20q-88 0 -88 -89v-334q0 -89 88 -89h20q88 0 88 89v334q0 89 -88 89zM98 638v31h11v-31q0 -43 48 -43h11q48 0 48 43v31h11v-31q0 -54 -59 -54h-11q-59 0 -59 54z" />
    <glyph glyph-name="Ohungarumlaut" unicode="&#x150;" horiz-adv-x="362" 
d="M306 99q0 -104 -106 -104h-38q-106 0 -106 104v502q0 104 106 104h38q106 0 106 -104v-502zM292 601q0 91 -92 91h-38q-92 0 -92 -91v-502q0 -91 92 -91h38q92 0 92 91v502zM142 745l55 73h16l-60 -73h-11zM208 745l55 73h16l-60 -73h-11z" />
    <glyph glyph-name="ohungarumlaut" unicode="&#x151;" horiz-adv-x="324" 
d="M172 -4h-20q-102 0 -102 102v334q0 102 102 102h20q102 0 102 -102v-334q0 -102 -102 -102zM172 521h-20q-88 0 -88 -89v-334q0 -89 88 -89h20q88 0 88 89v334q0 89 -88 89zM124 585l49 93h16l-55 -93h-10zM190 585l49 93h16l-55 -93h-10z" />
    <glyph glyph-name="OE" unicode="&#x152;" horiz-adv-x="509" 
d="M182 700h276v-13h-176v-325h171v-13h-171v-336h178v-13h-278q-53 0 -89.5 32t-36.5 82v472q0 50 36.5 82t89.5 32zM268 13v674h-86q-47 0 -79.5 -28.5t-32.5 -72.5v-472q0 -44 32.5 -72.5t79.5 -28.5h86z" />
    <glyph glyph-name="oe" unicode="&#x153;" horiz-adv-x="527" 
d="M364 533h9q104 0 104 -104v-174h-203v-156q0 -91 90 -91h9q90 0 90 91v70h14v-70q0 -104 -104 -104h-9q-80 0 -96 61q-19 -61 -96 -61h-20q-102 0 -102 102v334q0 102 102 102h20q80 0 96 -61q16 61 96 61zM172 520h-20q-88 0 -88 -89v-334q0 -89 88 -89h20q88 0 88 89
v334q0 89 -88 89zM274 429v-161h189v161q0 91 -90 91h-9q-90 0 -90 -91z" />
    <glyph glyph-name="Racute" unicode="&#x154;" horiz-adv-x="353" 
d="M212 342q76 -19 76 -111v-231h-14v231q0 105 -106 105h-91v-336h-14v700h118q106 0 106 -104v-142q0 -89 -75 -112zM273 596q0 91 -92 91h-104v-338h90q106 0 106 105v142zM169 745l53 73h18l-59 -73h-12z" />
    <glyph glyph-name="racute" unicode="&#x155;" horiz-adv-x="192" 
d="M57 0v530h14v-46q46 47 102 50v-16q-60 -4 -102 -51v-467h-14zM94 585l47 93h17l-53 -93h-11z" />
    <glyph glyph-name="Rcommaaccent" unicode="&#x156;" horiz-adv-x="353" 
d="M212 342q76 -19 76 -111v-231h-14v231q0 105 -106 105h-91v-336h-14v700h118q106 0 106 -104v-142q0 -89 -75 -112zM273 596q0 91 -92 91h-104v-338h90q106 0 106 105v142zM182 -45v-39q0 -27 -16 -49l-10 -14l-6 4l7 11q14 24 15 37h-6v50h16z" />
    <glyph glyph-name="rcommaaccent" unicode="&#x157;" horiz-adv-x="192" 
d="M57 0v530h14v-46q46 47 102 50v-16q-60 -4 -102 -51v-467h-14zM73 -45v-39q0 -27 -16 -49l-10 -14l-6 4l7 11q14 24 15 37h-6v50h16z" />
    <glyph glyph-name="Rcaron" unicode="&#x158;" horiz-adv-x="353" 
d="M212 342q76 -19 76 -111v-231h-14v231q0 105 -106 105h-91v-336h-14v700h118q106 0 106 -104v-142q0 -89 -75 -112zM273 596q0 91 -92 91h-104v-338h90q106 0 106 105v142zM242 826l-60 -81h-17l-61 81h11l58 -71l59 71h10z" />
    <glyph glyph-name="rcaron" unicode="&#x159;" horiz-adv-x="192" 
d="M57 0v530h14v-46q46 47 102 50v-16q-60 -4 -102 -51v-467h-14zM164 678l-56 -93h-17l-57 93h11l54 -81l55 81h10z" />
    <glyph glyph-name="Sacute" unicode="&#x15a;" horiz-adv-x="338" 
d="M230 323q57 -45 57 -115v-113q0 -100 -106 -100h-21q-106 0 -106 100v138h14v-138q0 -87 92 -87h21q92 0 92 87v112q0 64 -51 104l-111 87q-57 45 -57 115v92q0 100 106 100h19q106 0 106 -100v-117h-14v117q0 87 -92 87h-19q-92 0 -92 -87v-91q0 -64 51 -104zM164 745
l53 73h18l-59 -73h-12z" />
    <glyph glyph-name="sacute" unicode="&#x15b;" horiz-adv-x="311" 
d="M245 361v83q0 77 -82 77h-16q-82 0 -82 -77v-53q0 -56 48 -85l93 -60q55 -36 55 -96v-64q0 -90 -96 -90h-19q-96 0 -96 90v88h14v-88q0 -77 82 -77h19q82 0 82 77v63q0 56 -48 85l-93 60q-55 36 -55 96v54q0 90 96 90h16q96 0 96 -90v-83h-14zM144 585l47 93h17l-53 -93
h-11z" />
    <glyph glyph-name="Scedilla" unicode="&#x15e;" horiz-adv-x="338" 
d="M230 323q57 -45 57 -115v-113q0 -98 -104 -100l-28 -77h-16l33 77h-12q-106 0 -106 100v138h14v-138q0 -87 92 -87h21q92 0 92 87v112q0 64 -51 104l-111 87q-57 45 -57 115v92q0 100 106 100h19q106 0 106 -100v-117h-14v117q0 87 -92 87h-19q-92 0 -92 -87v-91
q0 -64 51 -104z" />
    <glyph glyph-name="scedilla" unicode="&#x15f;" horiz-adv-x="311" 
d="M245 361v83q0 77 -82 77h-16q-82 0 -82 -77v-53q0 -56 48 -85l93 -60q55 -36 55 -96v-64q0 -90 -96 -90h-3l-28 -78h-16l33 78h-5q-96 0 -96 90v88h14v-88q0 -77 82 -77h19q82 0 82 77v63q0 56 -48 85l-93 60q-55 36 -55 96v54q0 90 96 90h16q96 0 96 -90v-83h-14z" />
    <glyph glyph-name="Scaron" unicode="&#x160;" horiz-adv-x="338" 
d="M230 323q57 -45 57 -115v-113q0 -100 -106 -100h-21q-106 0 -106 100v138h14v-138q0 -87 92 -87h21q92 0 92 87v112q0 64 -51 104l-111 87q-57 45 -57 115v92q0 100 106 100h19q106 0 106 -100v-117h-14v117q0 87 -92 87h-19q-92 0 -92 -87v-91q0 -64 51 -104zM237 826
l-60 -81h-17l-61 81h11l58 -71l59 71h10z" />
    <glyph glyph-name="scaron" unicode="&#x161;" horiz-adv-x="311" 
d="M245 361v83q0 77 -82 77h-16q-82 0 -82 -77v-53q0 -56 48 -85l93 -60q55 -36 55 -96v-64q0 -90 -96 -90h-19q-96 0 -96 90v88h14v-88q0 -77 82 -77h19q82 0 82 77v63q0 56 -48 85l-93 60q-55 36 -55 96v54q0 90 96 90h16q96 0 96 -90v-83h-14zM214 678l-56 -93h-17
l-57 93h11l54 -81l55 81h10z" />
    <glyph glyph-name="Tcommaaccent" unicode="&#x162;" horiz-adv-x="290" 
d="M152 0h-14v687h-120v13h254v-13h-120v-687zM154 -45v-39q0 -27 -16 -49l-10 -14l-6 4l7 11q14 24 15 37h-6v50h16z" />
    <glyph glyph-name="Tcommaaccent" unicode="&#x21a;" horiz-adv-x="290" 
d="M152 0h-14v687h-120v13h254v-13h-120v-687zM154 -45v-39q0 -27 -16 -49l-10 -14l-6 4l7 11q14 24 15 37h-6v50h16z" />
    <glyph glyph-name="tcommaaccent" unicode="&#x163;" horiz-adv-x="175" 
d="M87 518v-518h-14v518h-46v12h46v90h14v-90h79v-12h-79zM89 -45v-39q0 -27 -16 -49l-10 -14l-6 4l7 11q14 24 15 37h-6v50h16z" />
    <glyph glyph-name="tcommaaccent" unicode="&#x21b;" horiz-adv-x="175" 
d="M87 518v-518h-14v518h-46v12h46v90h14v-90h79v-12h-79zM89 -45v-39q0 -27 -16 -49l-10 -14l-6 4l7 11q14 24 15 37h-6v50h16z" />
    <glyph glyph-name="Tcaron" unicode="&#x164;" horiz-adv-x="290" 
d="M152 0h-14v687h-120v13h254v-13h-120v-687zM214 826l-60 -81h-17l-61 81h11l58 -71l59 71h10z" />
    <glyph glyph-name="tcaron" unicode="&#x165;" horiz-adv-x="175" 
d="M87 518v-518h-14v518h-46v12h46v90h14v-90h79v-12h-79zM129 592v113h13l-4 -113h-9z" />
    <glyph glyph-name="Umacron" unicode="&#x16a;" horiz-adv-x="365" 
d="M304 700v-598q0 -107 -108 -107h-27q-108 0 -108 107v598h14v-598q0 -94 94 -94h27q94 0 94 94v598h14zM105 785h154v-12h-154v12z" />
    <glyph glyph-name="umacron" unicode="&#x16b;" horiz-adv-x="327" 
d="M270 530v-530h-14v43q-35 -26 -57.5 -36.5t-49.5 -10.5h-8q-86 0 -86 78v456h14v-455q0 -66 73 -66h8q25 0 47.5 10.5t58.5 38.5v472h14zM84 631h154v-12h-154v12z" />
    <glyph glyph-name="Ubreve" unicode="&#x16c;" horiz-adv-x="365" 
d="M115 794v24h11v-24q0 -39 49 -39h15q49 0 49 39v24h11v-24q0 -50 -60 -50h-15q-60 0 -60 50zM304 700v-598q0 -107 -108 -107h-27q-108 0 -108 107v598h14v-598q0 -94 94 -94h27q94 0 94 94v598h14z" />
    <glyph glyph-name="ubreve" unicode="&#x16d;" horiz-adv-x="327" 
d="M270 530v-530h-14v43q-35 -26 -57.5 -36.5t-49.5 -10.5h-8q-86 0 -86 78v456h14v-455q0 -66 73 -66h8q25 0 47.5 10.5t58.5 38.5v472h14zM97 638v31h11v-31q0 -43 48 -43h11q48 0 48 43v31h11v-31q0 -54 -59 -54h-11q-59 0 -59 54z" />
    <glyph glyph-name="Uring" unicode="&#x16e;" horiz-adv-x="365" 
d="M304 700v-598q0 -107 -108 -107h-27q-108 0 -108 107v598h14v-598q0 -94 94 -94h27q94 0 94 94v598h14zM268 797v-3q0 -25 -14 -35.5t-45 -10.5h-54q-31 0 -45 10.5t-14 35.5v3q0 25 14 35.5t45 10.5h54q31 0 45 -10.5t14 -35.5zM257 794v3q0 20 -11 27.5t-38 7.5h-52
q-27 0 -38 -7.5t-11 -27.5v-3q0 -20 11 -27.5t38 -7.5h52q27 0 38 7.5t11 27.5z" />
    <glyph glyph-name="uring" unicode="&#x16f;" horiz-adv-x="327" 
d="M270 530v-530h-14v43q-35 -26 -57.5 -36.5t-49.5 -10.5h-8q-86 0 -86 78v456h14v-455q0 -66 73 -66h8q25 0 47.5 10.5t58.5 38.5v472h14zM235 639v-3q0 -26 -13.5 -37t-45.5 -11h-30q-32 0 -45.5 11t-13.5 37v3q0 26 13.5 37t45.5 11h30q32 0 45.5 -11t13.5 -37zM224 636
v3q0 20 -11 28.5t-37 8.5h-30q-26 0 -37 -8.5t-11 -28.5v-3q0 -20 10.5 -28.5t37.5 -8.5h30q26 0 37 8.5t11 28.5z" />
    <glyph glyph-name="Uhungarumlaut" unicode="&#x170;" horiz-adv-x="365" 
d="M304 700v-598q0 -107 -108 -107h-27q-108 0 -108 107v598h14v-598q0 -94 94 -94h27q94 0 94 94v598h14zM143 745l55 73h16l-60 -73h-11zM209 745l55 73h16l-60 -73h-11z" />
    <glyph glyph-name="uhungarumlaut" unicode="&#x171;" horiz-adv-x="327" 
d="M270 530v-530h-14v43q-35 -26 -57.5 -36.5t-49.5 -10.5h-8q-86 0 -86 78v456h14v-455q0 -66 73 -66h8q25 0 47.5 10.5t58.5 38.5v472h14zM123 585l49 93h16l-55 -93h-10zM189 585l49 93h16l-55 -93h-10z" />
    <glyph glyph-name="Uogonek" unicode="&#x172;" horiz-adv-x="365" 
d="M304 700v-598q0 -107 -108 -107h-8l-2 -5q-19 -42 -19 -48v-6q0 -14 15 -14h33v-12h-33q-28 0 -28 26v6q0 12 21 51l1 2h-7q-108 0 -108 107v598h14v-598q0 -94 94 -94h27q94 0 94 94v598h14z" />
    <glyph glyph-name="uogonek" unicode="&#x173;" horiz-adv-x="327" 
d="M270 530v-530h-2l-4 -10q-19 -42 -19 -48v-6q0 -14 15 -14h33v-12h-33q-28 0 -28 26v6q0 12 21 51l3 7v43q-35 -26 -57.5 -36.5t-49.5 -10.5h-8q-86 0 -86 78v456h14v-455q0 -66 73 -66h8q25 0 47.5 10.5t58.5 38.5v472h14z" />
    <glyph glyph-name="Wcircumflex" unicode="&#x174;" horiz-adv-x="527" 
d="M272 700l97 -674l105 674h14l-110 -700h-18l-97 672l-95 -672h-18l-112 700h14l107 -674l95 674h18zM270 826l60 -81h-10l-59 70l-58 -70h-11l61 81h17z" />
    <glyph glyph-name="wcircumflex" unicode="&#x175;" horiz-adv-x="443" 
d="M229 530l86 -502l88 502h14l-94 -534h-14l-87 505l-87 -505h-14l-97 534h14l90 -500l87 500h14zM225 678l56 -93h-10l-55 80l-54 -80h-11l57 93h17z" />
    <glyph glyph-name="Ycircumflex" unicode="&#x176;" horiz-adv-x="297" 
d="M277 700l-121 -450v-250h-14v247l-122 453h14l115 -432l114 432h14zM157 826l60 -81h-10l-59 70l-58 -70h-11l61 81h17z" />
    <glyph glyph-name="ycircumflex" unicode="&#x177;" horiz-adv-x="296" 
d="M135 -110h-14l23 107l-117 533h14l110 -506l104 506h14zM158 678l56 -93h-10l-55 80l-54 -80h-11l57 93h17z" />
    <glyph glyph-name="Ydieresis" unicode="&#x178;" horiz-adv-x="297" 
d="M277 700l-121 -450v-250h-14v247l-122 453h14l115 -432l114 432h14zM106 803v-58h-12v58h12zM190 745v58h12v-58h-12z" />
    <glyph glyph-name="Zacute" unicode="&#x179;" horiz-adv-x="279" 
d="M226 687h-189v13h202v-13l-189 -674h199v-13h-212v13zM138 745l53 73h18l-59 -73h-12z" />
    <glyph glyph-name="zacute" unicode="&#x17a;" horiz-adv-x="232" 
d="M188 517h-163v13h176v-13l-163 -504h169v-13h-182v13zM101 585l47 93h17l-53 -93h-11z" />
    <glyph glyph-name="Zdotaccent" unicode="&#x17b;" horiz-adv-x="279" 
d="M226 687h-189v13h202v-13l-189 -674h199v-13h-212v13zM148 806v-61h-13v61h13z" />
    <glyph glyph-name="zdotaccent" unicode="&#x17c;" horiz-adv-x="232" 
d="M188 517h-163v13h176v-13l-163 -504h169v-13h-182v13zM111 649v-64h-13v64h13z" />
    <glyph glyph-name="Zcaron" unicode="&#x17d;" horiz-adv-x="279" 
d="M226 687h-189v13h202v-13l-189 -674h199v-13h-212v13zM211 826l-60 -81h-17l-61 81h11l58 -71l59 71h10z" />
    <glyph glyph-name="zcaron" unicode="&#x17e;" horiz-adv-x="232" 
d="M188 517h-163v13h176v-13l-163 -504h169v-13h-182v13zM171 678l-56 -93h-17l-57 93h11l54 -81l55 81h10z" />
    <glyph glyph-name="Aringacute" unicode="&#x1fa;" horiz-adv-x="346" 
d="M259 695v-3q0 -25 -14 -35.5t-45 -10.5h-15l127 -646h-14l-33 169h-184l-33 -169h-14l126 646h-14q-31 0 -45 10.5t-14 35.5v3q0 25 14 35.5t45 10.5h54q31 0 45 -10.5t14 -35.5zM173 643l-90 -461h179zM248 692v3q0 20 -11 27.5t-38 7.5h-52q-27 0 -38 -7.5t-11 -27.5
v-3q0 -20 11 -27.5t38 -7.5h52q27 0 38 7.5t11 27.5zM168 774l53 73h18l-59 -73h-12z" />
    <glyph glyph-name="aringacute" unicode="&#x1fb;" horiz-adv-x="312" 
d="M49 74v99q0 39 17 61t61 40l116 48v121q0 78 -82 78h-8q-86 0 -86 -78v-74h-14v74q0 91 100 91h8q96 0 96 -91v-443h-14v41q-62 -45 -106 -45h-5q-83 0 -83 78zM138 9q41 0 105 47v252l-112 -47q-38 -16 -53 -35t-15 -53v-98q0 -66 70 -66h5zM232 639v-3q0 -26 -13.5 -37
t-45.5 -11h-30q-32 0 -45.5 11t-13.5 37v3q0 26 13.5 37t45.5 11h30q32 0 45.5 -11t13.5 -37zM221 636v3q0 20 -11 28.5t-37 8.5h-30q-26 0 -37 -8.5t-11 -28.5v-3q0 -20 10.5 -28.5t37.5 -8.5h30q26 0 37 8.5t11 28.5zM156 715l47 93h17l-53 -93h-11z" />
    <glyph glyph-name="AEacute" unicode="&#x1fc;" horiz-adv-x="481" 
d="M430 700v-13h-176v-325h171v-13h-171v-336h178v-13h-192v169h-141l-45 -169h-14l188 700h202zM102 182h138v514zM254 745l53 73h18l-59 -73h-12z" />
    <glyph glyph-name="aeacute" unicode="&#x1fd;" horiz-adv-x="510" 
d="M347 534h9q104 0 104 -104v-174h-203v-156q0 -91 90 -91h9q90 0 90 91v70h14v-70q0 -104 -104 -104h-9q-74 0 -94 51q-40 -30 -64.5 -40.5t-51.5 -10.5h-5q-83 0 -83 78v105q0 37 17.5 58t60.5 39l116 48v119q0 78 -82 78h-8q-86 0 -86 -78v-74h-14v74q0 91 100 91h8
q74 0 91 -57q20 57 95 57zM257 430v-161h189v161q0 91 -90 91h-9q-90 0 -90 -91zM248 59q-5 20 -5 41v210l-112 -47q-37 -16 -52.5 -34t-15.5 -50v-104q0 -66 70 -66h5q42 0 110 50zM249 585l47 93h17l-53 -93h-11z" />
    <glyph glyph-name="Oslashacute" unicode="&#x1fe;" horiz-adv-x="362" 
d="M306 99q0 -104 -106 -104h-38q-106 0 -106 104v502q0 104 106 104h38q106 0 106 -104v-502zM292 601q0 27 -9 46l-197 -608q23 -31 76 -31h38q92 0 92 91v502zM70 99q0 -25 8 -46l197 608q-23 31 -75 31h-38q-92 0 -92 -91v-502zM177 745l53 73h18l-59 -73h-12z" />
    <glyph glyph-name="oslashacute" unicode="&#x1ff;" horiz-adv-x="324" 
d="M172 -4h-20q-102 0 -102 102v334q0 102 102 102h20q102 0 102 -102v-334q0 -102 -102 -102zM152 521q-88 0 -88 -89v-334q0 -37 14 -57l159 459q-22 21 -65 21h-20zM260 432q0 34 -14 56l-159 -458q21 -21 65 -21h20q88 0 88 89v334zM157 585l47 93h17l-53 -93h-11z" />
    <glyph glyph-name="Scommaaccent" unicode="&#x218;" horiz-adv-x="338" 
d="M230 323q57 -45 57 -115v-113q0 -100 -106 -100h-21q-106 0 -106 100v138h14v-138q0 -87 92 -87h21q92 0 92 87v112q0 64 -51 104l-111 87q-57 45 -57 115v92q0 100 106 100h19q106 0 106 -100v-117h-14v117q0 87 -92 87h-19q-92 0 -92 -87v-91q0 -64 51 -104zM177 -45
v-39q0 -27 -16 -49l-10 -14l-6 4l7 11q14 24 15 37h-6v50h16z" />
    <glyph glyph-name="scommaaccent" unicode="&#x219;" horiz-adv-x="311" 
d="M245 361v83q0 77 -82 77h-16q-82 0 -82 -77v-53q0 -56 48 -85l93 -60q55 -36 55 -96v-64q0 -90 -96 -90h-19q-96 0 -96 90v88h14v-88q0 -77 82 -77h19q82 0 82 77v63q0 56 -48 85l-93 60q-55 36 -55 96v54q0 90 96 90h16q96 0 96 -90v-83h-14zM163 -45v-39q0 -27 -16 -49
l-10 -14l-6 4l7 11q14 24 15 37h-6v50h16z" />
    <glyph glyph-name="schwa" unicode="&#x259;" horiz-adv-x="317" 
d="M50 100v174h203v156q0 91 -90 91h-9q-90 0 -90 -91v-62h-14v62q0 104 104 104h9q104 0 104 -104v-330q0 -104 -104 -104h-9q-104 0 -104 104zM163 9q90 0 90 91v161h-189v-161q0 -91 90 -91h9z" />
    <glyph glyph-name="circumflex" unicode="&#x2c6;" 
d="M259 678l56 -93h-10l-55 80l-54 -80h-11l57 93h17z" />
    <glyph glyph-name="caron" unicode="&#x2c7;" 
d="M315 678l-56 -93h-17l-57 93h11l54 -81l55 81h10z" />
    <glyph glyph-name="breve" unicode="&#x2d8;" 
d="M185 638v31h11v-31q0 -43 48 -43h11q48 0 48 43v31h11v-31q0 -54 -59 -54h-11q-59 0 -59 54z" />
    <glyph glyph-name="dotaccent" unicode="&#x2d9;" 
d="M256 649v-64h-13v64h13z" />
    <glyph glyph-name="ring" unicode="&#x2da;" 
d="M324 639v-3q0 -26 -13.5 -37t-45.5 -11h-30q-32 0 -45.5 11t-13.5 37v3q0 26 13.5 37t45.5 11h30q32 0 45.5 -11t13.5 -37zM313 636v3q0 20 -11 28.5t-37 8.5h-30q-26 0 -37 -8.5t-11 -28.5v-3q0 -20 10.5 -28.5t37.5 -8.5h30q26 0 37 8.5t11 28.5z" />
    <glyph glyph-name="ogonek" unicode="&#x2db;" 
d="M271 1h12l-5 -11q-19 -42 -19 -48v-6q0 -14 15 -14h33v-12h-33q-28 0 -28 26v6q0 12 21 51z" />
    <glyph glyph-name="tilde" unicode="&#x2dc;" 
d="M197 661h6q15 0 29 -13l47 -44q9 -8 20 -8h4q13 0 13 18v47h11v-50q0 -26 -23 -26h-6q-15 0 -29 13l-47 44q-9 8 -20 8h-4q-13 0 -13 -18v-47h-11v49q0 27 23 27z" />
    <glyph glyph-name="hungarumlaut" unicode="&#x2dd;" 
d="M201 585l49 93h16l-55 -93h-10zM267 585l49 93h16l-55 -93h-10z" />
    <glyph glyph-name="commaaccent" unicode="&#x326;" 
d="M236 -45v-39q0 -27 -16 -49l-10 -14l-6 4l7 11q14 24 15 37h-6v50h16z" />
    <glyph glyph-name="Wgrave" unicode="&#x1e80;" horiz-adv-x="527" 
d="M272 700l97 -674l105 674h14l-110 -700h-18l-97 672l-95 -672h-18l-112 700h14l107 -674l95 674h18zM212 818l53 -73h-12l-59 73h18z" />
    <glyph glyph-name="wgrave" unicode="&#x1e81;" horiz-adv-x="443" 
d="M309 -4l-87 505l-87 -505h-14l-97 534h14l90 -500l87 500h14l86 -502l88 502h14l-94 -534h-14zM173 678l47 -93h-11l-53 93h17z" />
    <glyph glyph-name="Wacute" unicode="&#x1e82;" horiz-adv-x="527" 
d="M254 700h18l97 -674l105 674h14l-110 -700h-18l-97 672l-95 -672h-18l-112 700h14l107 -674zM257 745l53 73h18l-59 -73h-12z" />
    <glyph glyph-name="wacute" unicode="&#x1e83;" horiz-adv-x="443" 
d="M135 -4h-14l-97 534h14l90 -500l87 500h14l86 -502l88 502h14l-94 -534h-14l-87 505zM211 585l47 93h17l-53 -93h-11z" />
    <glyph glyph-name="Wdieresis" unicode="&#x1e84;" horiz-adv-x="527" 
d="M272 700l97 -674l105 674h14l-110 -700h-18l-97 672l-95 -672h-18l-112 700h14l107 -674l95 674h18zM303 745v58h12v-58h-12zM219 803v-58h-12v58h12z" />
    <glyph glyph-name="wdieresis" unicode="&#x1e85;" horiz-adv-x="443" 
d="M229 530l86 -502l88 502h14l-94 -534h-14l-87 505l-87 -505h-14l-97 534h14l90 -500l87 500h14zM259 585v64h13v-64h-13zM173 649v-64h-13v64h13z" />
    <glyph glyph-name="Ygrave" unicode="&#x1ef2;" horiz-adv-x="297" 
d="M277 700l-121 -450v-250h-14v247l-122 453h14l115 -432l114 432h14zM99 818l53 -73h-12l-59 73h18z" />
    <glyph glyph-name="ygrave" unicode="&#x1ef3;" horiz-adv-x="296" 
d="M135 -110h-14l23 107l-117 533h14l110 -506l104 506h14zM106 678l47 -93h-11l-53 93h17z" />
    <glyph glyph-name="enspace" unicode="&#x2002;" 
 />
    <glyph glyph-name="emspace" unicode="&#x2003;" horiz-adv-x="1000" 
 />
    <glyph glyph-name="threeperemspace" unicode="&#x2004;" horiz-adv-x="333" 
 />
    <glyph glyph-name="fourperemspace" unicode="&#x2005;" horiz-adv-x="250" 
 />
    <glyph glyph-name="thinspace" unicode="&#x2009;" horiz-adv-x="133" 
 />
    <glyph glyph-name="hairspace" unicode="&#x200a;" horiz-adv-x="75" 
 />
    <glyph glyph-name="endash" unicode="&#x2013;" horiz-adv-x="366" 
d="M36 284h294v-13h-294v13z" />
    <glyph glyph-name="emdash" unicode="&#x2014;" horiz-adv-x="556" 
d="M36 284h484v-13h-484v13z" />
    <glyph glyph-name="quoteleft" unicode="&#x2018;" horiz-adv-x="84" 
d="M30 578v44q0 32 18 66l9 17l7 -3l-8 -17q-14 -27 -15 -46h5v-61h-16z" />
    <glyph glyph-name="quoteright" unicode="&#x2019;" horiz-adv-x="84" 
d="M54 700v-44q0 -32 -18 -66l-9 -17l-7 3l8 17q14 29 15 46h-5v61h16z" />
    <glyph glyph-name="quotesinglbase" unicode="&#x201a;" horiz-adv-x="84" 
d="M50 61v-44q0 -32 -18 -66l-9 -17l-7 3l8 17q14 32 15 46h-5v61h16z" />
    <glyph glyph-name="quotedblleft" unicode="&#x201c;" horiz-adv-x="144" 
d="M90 578v44q0 32 18 66l9 17l7 -3l-8 -17q-15 -34 -15 -46h5v-61h-16zM30 578v44q0 32 18 66l9 17l7 -3l-8 -17q-15 -32 -15 -46h5v-61h-16z" />
    <glyph glyph-name="quotedblright" unicode="&#x201d;" horiz-adv-x="144" 
d="M54 700v-44q0 -32 -18 -66l-9 -17l-7 3l8 17q14 38 15 46h-5v61h16zM114 700v-44q0 -32 -18 -66l-9 -17l-7 3l8 17q14 35 15 46h-5v61h16z" />
    <glyph glyph-name="quotedblbase" unicode="&#x201e;" horiz-adv-x="144" 
d="M50 61v-44q0 -32 -18 -66l-9 -17l-7 3l8 17q14 38 15 46h-5v61h16zM110 61v-44q0 -32 -18 -66l-9 -17l-7 3l8 17q14 35 15 46h-5v61h16z" />
    <glyph glyph-name="dagger" unicode="&#x2020;" horiz-adv-x="230" 
d="M121 348h-13v244h-81v12l81 -1v97h13l-1 -97l83 1v-12h-83z" />
    <glyph glyph-name="daggerdbl" unicode="&#x2021;" horiz-adv-x="230" 
d="M108 592h-81v12l81 -1v97h13l-1 -97l83 1v-12h-83l1 -130l-1 -128h83v-12l-83 1l1 -97h-13v97l-81 -1v12h81v258z" />
    <glyph glyph-name="bullet" unicode="&#x2022;" horiz-adv-x="172" 
d="M114 385v-66q0 -24 -19 -24h-19q-18 0 -18 24v66q0 14 4 19t14 5h19q19 0 19 -24z" />
    <glyph glyph-name="ellipsis" unicode="&#x2026;" horiz-adv-x="252" 
d="M50 61v-61h-16v61h16zM134 61v-61h-16v61h16zM218 61v-61h-16v61h16z" />
    <glyph glyph-name="guilsinglleft" unicode="&#x2039;" horiz-adv-x="133" 
d="M37 280l47 143h10l-41 -143l42 -143h-9z" />
    <glyph glyph-name="guilsinglright" unicode="&#x203a;" horiz-adv-x="133" 
d="M49 423l47 -143l-49 -143h-9l42 143l-41 143h10z" />
    <glyph glyph-name="Euro" unicode="&#x20ac;" horiz-adv-x="361" 
d="M36 412h46v189q0 50 26.5 77t77.5 27h28q51 0 77.5 -27t26.5 -77v-94h-14v94q0 91 -90 91h-28q-90 0 -90 -91v-189h167v-12h-167v-89h167v-12h-167v-200q0 -91 90 -91h29q90 0 90 91v101h14v-101q0 -50 -26.5 -77t-77.5 -27h-29q-51 0 -77.5 27t-26.5 77v200h-46v12h46
v89h-46v12z" />
    <glyph glyph-name="published" unicode="&#x2117;" horiz-adv-x="496" 
d="M436 541v-381q0 -90 -32 -127t-114 -37h-84q-82 0 -114 37t-32 127v381q0 90 32 127t114 37h84q82 0 114 -37t32 -127zM424 160v381q0 84 -28.5 118.5t-105.5 34.5h-84q-77 0 -105.5 -34.5t-28.5 -118.5v-381q0 -84 28.5 -118.5t105.5 -34.5h84q77 0 105.5 34.5
t28.5 118.5zM192 300v-206h-14v514h55q58 0 78.5 -16.5t20.5 -62.5v-142q0 -46 -22.5 -66.5t-76.5 -20.5h-41zM318 529q0 39 -17 52.5t-68 13.5h-41v-282h41q48 0 66.5 17t18.5 57v142z" />
    <glyph glyph-name="servicemark" unicode="&#x2120;" horiz-adv-x="408" 
d="M221 699l60 -278l60 278h21v-301h-12v287l-64 -287h-10l-64 287v-287h-12v301h21zM57 503v-60q0 -37 32 -37h16q33 0 33 38v39q0 20 -4 28.5t-16 17.5l-49 37q-14 11 -19 21t-5 32v35q0 47 45 47h14q44 0 44 -47v-58h-12v57q0 37 -32 37h-14q-33 0 -33 -37v-32
q0 -20 4 -28.5t16 -17.5l49 -37q14 -11 19 -21t5 -32v-42q0 -47 -44 -47h-17q-44 0 -44 47v60h12z" />
    <glyph glyph-name="trademark" unicode="&#x2122;" horiz-adv-x="382" 
d="M195 699l60 -278l60 278h21v-301h-12v287l-64 -287h-10l-64 287v-287h-12v301h21zM88 398h-12v290h-53v11h118v-11h-53v-290z" />
    <glyph glyph-name="minus" unicode="&#x2212;" horiz-adv-x="314" 
d="M30 362h254v-14h-254v14z" />
    <glyph glyph-name="f_f" unicode="&#xfb00;" horiz-adv-x="360" 
d="M73 530v105q0 75 68 75h31v-13h-31q-54 0 -54 -61v-106h82v-12h-82v-518h-14v518h-46v12h46zM253 530v105q0 75 68 75h31v-13h-31q-54 0 -54 -61v-106h82v-12h-82v-518h-14v518h-46v12h46z" />
    <glyph glyph-name="fi" unicode="&#xfb01;" horiz-adv-x="312" 
d="M73 530v105q0 75 68 75h31v-13h-31q-54 0 -54 -61v-106h82v-12h-82v-518h-14v518h-46v12h46zM238 615v55h16v-55h-16zM239 0v530h14v-530h-14z" />
    <glyph glyph-name="fl" unicode="&#xfb02;" horiz-adv-x="312" 
d="M73 530v105q0 75 68 75h31v-13h-31q-54 0 -54 -61v-106h82v-12h-82v-518h-14v518h-46v12h46zM239 0v710h14v-710h-14z" />
    <glyph glyph-name="f_f_i" unicode="&#xfb03;" horiz-adv-x="492" 
d="M73 530v105q0 75 68 75h31v-13h-31q-54 0 -54 -61v-106h82v-12h-82v-518h-14v518h-46v12h46zM253 530v105q0 75 68 75h31v-13h-31q-54 0 -54 -61v-106h82v-12h-82v-518h-14v518h-46v12h46zM418 615v55h16v-55h-16zM419 0v530h14v-530h-14z" />
    <glyph glyph-name="f_f_l" unicode="&#xfb04;" horiz-adv-x="492" 
d="M73 530v105q0 75 68 75h31v-13h-31q-54 0 -54 -61v-106h82v-12h-82v-518h-14v518h-46v12h46zM253 530v105q0 75 68 75h31v-13h-31q-54 0 -54 -61v-106h82v-12h-82v-518h-14v518h-46v12h46zM419 0v710h14v-710h-14z" />
    <glyph glyph-name="Q.alt" horiz-adv-x="362" 
d="M306 601v-502q0 -35 -14 -60l44 -33l-10 -13l-41 35q-27 -33 -85 -33h-38q-106 0 -106 104v502q0 104 106 104h38q106 0 106 -104zM292 601q0 91 -92 91h-38q-92 0 -92 -91v-502q0 -91 92 -91h38q51 0 74 29l-91 78l8 10l90 -77q11 22 11 51v502z" />
    <glyph glyph-name="a.alt" horiz-adv-x="322" 
d="M267 530v-530h-14v43q-35 -26 -58 -36.5t-50 -10.5h-8q-87 0 -87 78v382q0 78 87 78h8q27 0 50 -10.5t58 -36.5v43h14zM253 59v413q-37 28 -59.5 38.5t-52.5 10.5q-40 0 -58.5 -16t-18.5 -50v-380q0 -34 18.5 -50t58.5 -16q30 0 52.5 10.5t59.5 39.5z" />
    <glyph glyph-name="y.alt" horiz-adv-x="296" 
d="M135 -110h-14l23 107l-117 533h14l110 -506l104 506h14z" />
    <glyph glyph-name="aacute.alt" horiz-adv-x="322" 
d="M267 530v-530h-14v43q-35 -26 -58 -36.5t-50 -10.5h-8q-87 0 -87 78v382q0 78 87 78h8q27 0 50 -10.5t58 -36.5v43h14zM253 59v413q-37 28 -59.5 38.5t-52.5 10.5q-40 0 -58.5 -16t-18.5 -50v-380q0 -34 18.5 -50t58.5 -16q30 0 52.5 10.5t59.5 39.5zM160 585l47 93h17
l-53 -93h-11z" />
    <glyph glyph-name="abreve.alt" horiz-adv-x="322" 
d="M267 530v-530h-14v43q-35 -26 -58 -36.5t-50 -10.5h-8q-87 0 -87 78v382q0 78 87 78h8q27 0 50 -10.5t58 -36.5v43h14zM253 59v413q-37 28 -59.5 38.5t-52.5 10.5q-40 0 -58.5 -16t-18.5 -50v-380q0 -34 18.5 -50t58.5 -16q30 0 52.5 10.5t59.5 39.5zM101 638v31h11v-31
q0 -43 48 -43h11q48 0 48 43v31h11v-31q0 -54 -59 -54h-11q-59 0 -59 54z" />
    <glyph glyph-name="acircumflex.alt" horiz-adv-x="322" 
d="M267 530v-530h-14v43q-35 -26 -58 -36.5t-50 -10.5h-8q-87 0 -87 78v382q0 78 87 78h8q27 0 50 -10.5t58 -36.5v43h14zM253 59v413q-37 28 -59.5 38.5t-52.5 10.5q-40 0 -58.5 -16t-18.5 -50v-380q0 -34 18.5 -50t58.5 -16q30 0 52.5 10.5t59.5 39.5zM174 678l56 -93h-10
l-55 80l-54 -80h-11l57 93h17z" />
    <glyph glyph-name="adieresis.alt" horiz-adv-x="322" 
d="M267 530v-530h-14v43q-35 -26 -58 -36.5t-50 -10.5h-8q-87 0 -87 78v382q0 78 87 78h8q27 0 50 -10.5t58 -36.5v43h14zM253 59v413q-37 28 -59.5 38.5t-52.5 10.5q-40 0 -58.5 -16t-18.5 -50v-380q0 -34 18.5 -50t58.5 -16q30 0 52.5 10.5t59.5 39.5zM208 585v64h13v-64
h-13zM122 649v-64h-13v64h13z" />
    <glyph glyph-name="agrave.alt" horiz-adv-x="322" 
d="M267 530v-530h-14v43q-35 -26 -58 -36.5t-50 -10.5h-8q-87 0 -87 78v382q0 78 87 78h8q27 0 50 -10.5t58 -36.5v43h14zM253 59v413q-37 28 -59.5 38.5t-52.5 10.5q-40 0 -58.5 -16t-18.5 -50v-380q0 -34 18.5 -50t58.5 -16q30 0 52.5 10.5t59.5 39.5zM122 678l47 -93h-11
l-53 93h17z" />
    <glyph glyph-name="amacron.alt" horiz-adv-x="322" 
d="M267 530v-530h-14v43q-35 -26 -58 -36.5t-50 -10.5h-8q-87 0 -87 78v382q0 78 87 78h8q27 0 50 -10.5t58 -36.5v43h14zM253 59v413q-37 28 -59.5 38.5t-52.5 10.5q-40 0 -58.5 -16t-18.5 -50v-380q0 -34 18.5 -50t58.5 -16q30 0 52.5 10.5t59.5 39.5zM88 631h154v-12
h-154v12z" />
    <glyph glyph-name="aogonek.alt" horiz-adv-x="313" 
d="M267 530v-530h-2l-4 -10q-19 -42 -19 -48v-6q0 -14 15 -14h33v-12h-33q-28 0 -28 26v6q0 12 21 51l3 7v43q-35 -26 -58 -36.5t-50 -10.5h-8q-87 0 -87 78v382q0 78 87 78h8q27 0 50 -10.5t58 -36.5v43h14zM253 59v413q-37 28 -59.5 38.5t-52.5 10.5q-40 0 -58.5 -16
t-18.5 -50v-380q0 -34 18.5 -50t58.5 -16q30 0 52.5 10.5t59.5 39.5z" />
    <glyph glyph-name="aring.alt" horiz-adv-x="322" 
d="M267 530v-530h-14v43q-35 -26 -58 -36.5t-50 -10.5h-8q-87 0 -87 78v382q0 78 87 78h8q27 0 50 -10.5t58 -36.5v43h14zM253 59v413q-37 28 -59.5 38.5t-52.5 10.5q-40 0 -58.5 -16t-18.5 -50v-380q0 -34 18.5 -50t58.5 -16q30 0 52.5 10.5t59.5 39.5zM239 639v-3
q0 -26 -13.5 -37t-45.5 -11h-30q-32 0 -45.5 11t-13.5 37v3q0 26 13.5 37t45.5 11h30q32 0 45.5 -11t13.5 -37zM228 636v3q0 20 -11 28.5t-37 8.5h-30q-26 0 -37 -8.5t-11 -28.5v-3q0 -20 10.5 -28.5t37.5 -8.5h30q26 0 37 8.5t11 28.5z" />
    <glyph glyph-name="aringacute.alt" horiz-adv-x="322" 
d="M267 530v-530h-14v43q-35 -26 -58 -36.5t-50 -10.5h-8q-87 0 -87 78v382q0 78 87 78h8q27 0 50 -10.5t58 -36.5v43h14zM253 59v413q-37 28 -59.5 38.5t-52.5 10.5q-40 0 -58.5 -16t-18.5 -50v-380q0 -34 18.5 -50t58.5 -16q30 0 52.5 10.5t59.5 39.5zM239 639v-3
q0 -26 -13.5 -37t-45.5 -11h-30q-32 0 -45.5 11t-13.5 37v3q0 26 13.5 37t45.5 11h30q32 0 45.5 -11t13.5 -37zM228 636v3q0 20 -11 28.5t-37 8.5h-30q-26 0 -37 -8.5t-11 -28.5v-3q0 -20 10.5 -28.5t37.5 -8.5h30q26 0 37 8.5t11 28.5zM163 715l47 93h17l-53 -93h-11z" />
    <glyph glyph-name="atilde.alt" horiz-adv-x="322" 
d="M267 530v-530h-14v43q-35 -26 -58 -36.5t-50 -10.5h-8q-87 0 -87 78v382q0 78 87 78h8q27 0 50 -10.5t58 -36.5v43h14zM253 59v413q-37 28 -59.5 38.5t-52.5 10.5q-40 0 -58.5 -16t-18.5 -50v-380q0 -34 18.5 -50t58.5 -16q30 0 52.5 10.5t59.5 39.5zM112 661h6
q15 0 29 -13l47 -44q9 -8 20 -8h4q13 0 13 18v47h11v-50q0 -26 -23 -26h-6q-15 0 -29 13l-47 44q-9 8 -20 8h-4q-13 0 -13 -18v-47h-11v49q0 27 23 27z" />
    <glyph glyph-name="Gcommaaccent.alt" horiz-adv-x="356" 
d="M187 -45v-19q0 -31 -17 -65h-10q15 34 15 65v19h12zM286 334h-112v13h126v-248q0 -104 -106 -104h-32q-106 0 -106 104v502q0 104 106 104h32q106 0 106 -104v-121h-14v121q0 91 -92 91h-32q-92 0 -92 -91v-502q0 -91 92 -91h32q92 0 92 91v235z" />
    <glyph glyph-name="gcommaaccent.alt" horiz-adv-x="320" 
d="M152 585v19q0 31 17 65h10q-15 -34 -15 -65v-19h-12zM265 530v-560q0 -82 -91 -82h-27q-93 0 -93 82v14h14v-14q0 -69 79 -69h27q77 0 77 69v114q-60 -46 -106 -46h-8q-87 0 -87 78v340q0 78 87 78h8q46 0 106 -46v42h14zM251 99v373q-61 49 -105 49h-8q-74 0 -74 -66
v-338q0 -66 74 -66h8q26 0 48 10.5t57 37.5z" />
    <glyph glyph-name="Kcommaaccent.alt" horiz-adv-x="310" 
d="M286 0h-16l-193 352v-352h-14v700h14v-346l197 346h16l-199 -346zM166 -45v-19q0 -31 -17 -65h-10q15 34 15 65v19h12z" />
    <glyph glyph-name="kcommaaccent.alt" horiz-adv-x="277" 
d="M245 530h17l-177 -260l171 -270h-16l-169 268v-268h-14v710h14v-439zM151 -45v-19q0 -31 -17 -65h-10q15 34 15 65v19h12zM71 271v-3l4 1z" />
    <glyph glyph-name="Lcommaaccent.alt" horiz-adv-x="266" 
d="M155 -45v-19q0 -31 -17 -65h-10q15 34 15 65v19h12zM63 700h14v-687h168v-13h-182v700z" />
    <glyph glyph-name="lcommaaccent.alt" horiz-adv-x="132" 
d="M73 -45v-19q0 -31 -17 -65h-10q15 34 15 65v19h12zM59 0v710h14v-710h-14z" />
    <glyph glyph-name="Ncommaaccent.alt" horiz-adv-x="369" 
d="M306 0h-21l-208 674v-216l-1 -458h-13v700h21l208 -677v203l1 474h13v-700zM191 -45v-19q0 -31 -17 -65h-10q15 34 15 65v19h12z" />
    <glyph glyph-name="ncommaaccent.alt" horiz-adv-x="327" 
d="M169 -45v-19q0 -31 -17 -65h-10q15 34 15 65v19h12zM57 0v530h14v-43q35 26 57.5 36.5t49.5 10.5h8q86 0 86 -78v-456h-14v455q0 66 -73 66h-8q-25 0 -47.5 -10.5t-58.5 -38.5v-472h-14z" />
    <glyph glyph-name="Oslash.alt" horiz-adv-x="362" 
d="M306 99q0 -104 -106 -104h-38q-54 0 -81 28v-2l-18 -53h-13l18 53l4 13q-16 25 -16 65v502q0 104 106 104h38q52 0 80 -28v1l18 54h13l-22 -66q17 -26 17 -65v-502zM292 601q0 27 -9 46l-197 -608q23 -31 76 -31h38q92 0 92 91v502zM70 99q0 -27 8 -46l197 609
q-24 30 -75 30h-38q-92 0 -92 -91v-502z" />
    <glyph glyph-name="oslash.alt" horiz-adv-x="324" 
d="M172 -4h-20q-45 0 -70 19l-16 -45h-14l20 55q-22 25 -22 73v334q0 102 102 102h20q44 0 70 -20l16 46h14l-20 -56q22 -25 22 -72v-334q0 -102 -102 -102zM172 521h-20q-88 0 -88 -89v-334q0 -38 13 -58l160 460q-22 21 -65 21zM260 432q0 34 -14 56l-159 -459
q20 -20 65 -20h20q88 0 88 89v334z" />
    <glyph glyph-name="Oslashacute.alt" horiz-adv-x="362" 
d="M306 99q0 -104 -106 -104h-38q-54 0 -81 28v-2l-18 -53h-13l18 53l4 13q-16 25 -16 65v502q0 104 106 104h38q52 0 80 -28v1l18 54h13l-22 -66q17 -26 17 -65v-502zM292 601q0 27 -9 46l-197 -608q23 -31 76 -31h38q92 0 92 91v502zM70 99q0 -27 8 -46l197 609
q-24 30 -75 30h-38q-92 0 -92 -91v-502zM177 745l53 73h18l-59 -73h-12z" />
    <glyph glyph-name="oslashacute.alt" horiz-adv-x="324" 
d="M172 -4h-20q-45 0 -70 19l-16 -45h-14l20 55q-22 25 -22 73v334q0 102 102 102h20q44 0 70 -20l16 46h14l-20 -56q22 -25 22 -72v-334q0 -102 -102 -102zM172 521h-20q-88 0 -88 -89v-334q0 -38 13 -58l160 460q-22 21 -65 21zM260 432q0 34 -14 56l-159 -459
q20 -20 65 -20h20q88 0 88 89v334zM157 585l47 93h17l-53 -93h-11z" />
    <glyph glyph-name="Rcommaaccent.alt" horiz-adv-x="353" 
d="M180 -45v-19q0 -31 -17 -65h-10q15 34 15 65v19h12zM212 342q76 -19 76 -111v-231h-14v231q0 105 -106 105h-91v-336h-14v700h118q106 0 106 -104v-142q0 -89 -75 -112zM273 596q0 91 -92 91h-104v-338h90q106 0 106 105v142z" />
    <glyph glyph-name="rcommaaccent.alt" horiz-adv-x="192" 
d="M71 -45v-19q0 -31 -17 -65h-10q15 34 15 65v19h12zM57 0v530h14v-46q46 47 102 50v-16q-60 -4 -102 -51v-467h-14z" />
    <glyph glyph-name="Scommaaccent.alt" horiz-adv-x="338" 
d="M175 -45v-19q0 -31 -17 -65h-10q15 34 15 65v19h12zM230 323q57 -45 57 -115v-113q0 -100 -106 -100h-21q-106 0 -106 100v138h14v-138q0 -87 92 -87h21q92 0 92 87v112q0 64 -51 104l-111 87q-57 45 -57 115v92q0 100 106 100h19q106 0 106 -100v-117h-14v117
q0 87 -92 87h-19q-92 0 -92 -87v-91q0 -64 51 -104z" />
    <glyph glyph-name="scommaaccent.alt" horiz-adv-x="311" 
d="M161 -45v-19q0 -31 -17 -65h-10q15 34 15 65v19h12zM245 361v83q0 77 -82 77h-16q-82 0 -82 -77v-53q0 -56 48 -85l93 -60q55 -36 55 -96v-64q0 -90 -96 -90h-19q-96 0 -96 90v88h14v-88q0 -77 82 -77h19q82 0 82 77v63q0 56 -48 85l-93 60q-55 36 -55 96v54q0 90 96 90
h16q96 0 96 -90v-83h-14z" />
    <glyph glyph-name="Tcommaaccent.alt" horiz-adv-x="290" 
d="M152 -45v-19q0 -31 -17 -65h-10q15 34 15 65v19h12zM152 0h-14v687h-120v13h254v-13h-120v-687z" />
    <glyph glyph-name="tcommaaccent.alt" horiz-adv-x="175" 
d="M87 -45v-19q0 -31 -17 -65h-10q15 34 15 65v19h12zM87 518v-518h-14v518h-46v12h46v90h14v-90h79v-12h-79z" />
    <glyph glyph-name="yacute.alt" horiz-adv-x="296" 
d="M135 -110h-14l23 107l-117 533h14l110 -506l104 506h14zM144 585l47 93h17l-53 -93h-11z" />
    <glyph glyph-name="ycircumflex.alt" horiz-adv-x="296" 
d="M135 -110h-14l23 107l-117 533h14l110 -506l104 506h14zM158 678l56 -93h-10l-55 80l-54 -80h-11l57 93h17z" />
    <glyph glyph-name="ydieresis.alt" horiz-adv-x="296" 
d="M135 -110h-14l23 107l-117 533h14l110 -506l104 506h14zM106 649v-64h-13v64h13zM192 585v64h13v-64h-13z" />
    <glyph glyph-name="ygrave.alt" horiz-adv-x="296" 
d="M135 -110h-14l23 107l-117 533h14l110 -506l104 506h14zM106 678l47 -93h-11l-53 93h17z" />
    <glyph glyph-name="comma.alt" horiz-adv-x="84" 
d="M51 61v-27q0 -29 -4.5 -49t-23.5 -56h-10q11 27 16 43.5t6 25t2 36.5v27h14z" />
    <glyph glyph-name="semicolon.alt" horiz-adv-x="84" 
d="M51 61v-27q0 -29 -4.5 -49t-23.5 -56h-10q11 27 16 43.5t6 25t2 36.5v27h14zM50 530v-61h-16v61h16z" />
    <glyph glyph-name="colon.fig" horiz-adv-x="84" 
d="M50 530v-61h-16v61h16zM50 222v-61h-16v61h16z" />
    <glyph glyph-name="ampersand.alt" horiz-adv-x="370" 
d="M346 357h-55v-258q0 -50 -28 -77t-80 -27h-21q-52 0 -80 27t-28 77v163q0 83 76 102q-76 19 -76 104v133q0 50 28 77t81 27h20q53 0 81 -27t28 -77v-123h-14v123q0 44 -24.5 67.5t-70.5 23.5h-20q-46 0 -70.5 -23.5t-24.5 -67.5v-133q0 -98 106 -98h172v-13zM68 262v-163
q0 -91 94 -91h21q94 0 94 91v258h-104q-54 0 -79.5 -23t-25.5 -72z" />
    <glyph glyph-name="quotedblleft.alt" horiz-adv-x="144" 
d="M95 572v27q0 49 26 101h10q-14 -34 -17.5 -51t-3.5 -50v-27h-15zM35 572v27q0 49 26 101h10q-14 -34 -17.5 -51t-3.5 -50v-27h-15z" />
    <glyph glyph-name="quotedblright.alt" horiz-adv-x="144" 
d="M54 700v-27q0 -49 -26 -101h-10q14 34 17.5 51t3.5 50v27h15zM114 700v-27q0 -49 -26 -101h-10q14 34 17.5 51t3.5 50v27h15z" />
    <glyph glyph-name="quoteleft.alt" horiz-adv-x="84" 
d="M35 572v27q0 49 26 101h10q-15 -35 -18.5 -52t-3.5 -49v-27h-14z" />
    <glyph glyph-name="quoteright.alt" horiz-adv-x="84" 
d="M54 700v-27q0 -49 -26 -101h-10q15 35 18.5 52t3.5 49v27h14z" />
    <glyph glyph-name="quotedblbase.alt" horiz-adv-x="144" 
d="M54 61v-27q0 -49 -26 -101h-10q14 34 17.5 51t3.5 50v27h15zM114 61v-27q0 -49 -26 -101h-10q14 34 17.5 51t3.5 50v27h15z" />
    <glyph glyph-name="quotesinglbase.alt" horiz-adv-x="84" 
d="M54 61v-27q0 -49 -26 -101h-10q15 35 18.5 52t3.5 49v27h14z" />
    <glyph glyph-name="guillemotleft.cap" horiz-adv-x="214" 
d="M36 356l54 153h10l-48 -153l49 -153h-9zM121 356l44 153h10l-38 -153l39 -153h-9z" />
    <glyph glyph-name="guillemotright.cap" horiz-adv-x="214" 
d="M124 509l54 -153l-56 -153h-9l49 153l-48 153h10zM49 509l44 -153l-46 -153h-9l39 153l-38 153h10z" />
    <glyph glyph-name="guilsinglleft.cap" horiz-adv-x="151" 
d="M36 356l66 153h10l-59 -153l60 -153h-9z" />
    <glyph glyph-name="guilsinglright.cap" horiz-adv-x="151" 
d="M49 509l66 -153l-68 -153h-9l60 153l-59 153h10z" />
    <glyph glyph-name="hyphen.cap" horiz-adv-x="206" 
d="M36 362h134v-13h-134v13z" />
    <glyph glyph-name="endash.cap" horiz-adv-x="366" 
d="M36 362h294v-13h-294v13z" />
    <glyph glyph-name="emdash.cap" horiz-adv-x="572" 
d="M36 362h484v-13h-484v13z" />
    <glyph glyph-name="at.alt" horiz-adv-x="507" 
d="M391 108h-14q-29 0 -41 10t-12 33q-52 -41 -86 -41q-71 0 -71 65v94q0 33 13 51.5t48 32.5l94 38v110q0 32 -14.5 47.5t-48.5 15.5h-6q-71 0 -71 -63v-62h-13v62q0 76 84 76h6q76 0 76 -76v-339q0 -26 8 -34t35 -8h13q23 0 33.5 9.5t10.5 37.5v369q0 84 -28.5 118.5
t-105.5 34.5h-95q-77 0 -105.5 -34.5t-28.5 -118.5v-375q0 -84 28.5 -118.5t105.5 -34.5h233v-11h-233q-82 0 -114 37t-32 127v375q0 90 32 127t114 37h95q82 0 114 -37t32 -127v-369q0 -33 -14 -46t-42 -13zM238 123q32 0 84 41v214l-91 -37q-30 -13 -40.5 -28.5
t-10.5 -43.5v-93q0 -53 58 -53z" />
    <glyph glyph-name="registered.alt" horiz-adv-x="496" 
d="M436 541v-381q0 -90 -32 -127t-114 -37h-84q-82 0 -114 37t-32 127v381q0 90 32 127t114 37h84q82 0 114 -37t32 -127zM424 160v381q0 84 -28.5 118.5t-105.5 34.5h-84q-77 0 -105.5 -34.5t-28.5 -118.5v-381q0 -84 28.5 -118.5t105.5 -34.5h84q77 0 105.5 34.5
t28.5 118.5zM266 335q33 -4 49.5 -24t16.5 -67v-150h-14v150q0 49 -21 67t-75 18h-33v-235h-14v514h47q67 0 88 -17t21 -68v-93q0 -48 -15 -67.5t-50 -27.5zM317 523q0 43 -18 57.5t-77 14.5h-33v-253h32q54 0 75 18.5t21 69.5v93z" />
    <glyph glyph-name="percent.alt" horiz-adv-x="456" 
d="M138 376h-22q-39 0 -52.5 19.5t-13.5 67.5v155q0 48 13.5 67.5t52.5 19.5h22q39 0 52.5 -19.5t13.5 -67.5v-155q0 -48 -13.5 -67.5t-52.5 -19.5zM318 325h22q39 0 52.5 -19.5t13.5 -67.5v-155q0 -48 -13.5 -67.5t-52.5 -19.5h-22q-39 0 -52.5 19.5t-13.5 67.5v155
q0 48 13.5 67.5t52.5 19.5zM340 312h-22q-33 0 -43 -16t-10 -58v-155q0 -42 10 -58t43 -16h22q33 0 43 16t10 58v155q0 42 -10 58t-43 16zM138 692h-22q-33 0 -43 -16t-10 -58v-155q0 -42 10 -58t43 -16h22q33 0 43 16t10 58v155q0 42 -10 58t-43 16zM348 700l-115 -352
l-111 -348h-14l116 358l110 342h14z" />
    <glyph glyph-name="NUL" horiz-adv-x="0" 
 />
    <glyph glyph-name="hfjslug" horiz-adv-x="694" 
d="M644 -200h-208l-8 14h-163l-8 -14h-207v303q14 0 23 9.5t9 22.5t-9.5 22.5t-22.5 9.5v554h100l30 79h334l29 -79h101v-921zM400 563v-172h15v78h38v14h-38v66h43v14h-58zM184 563v-172h15v79h47v-79h15v172h-15v-79h-47v79h-15zM460 394q10 -4 21 -4q31 0 31 36v137h-16
v-137q0 -22 -16 -22q-8 0 -20 5v-15zM371 465l-13 3q-4 -18 -8 -30h-1l-16 31q23 21 23 42q0 31 -27 31q-12 0 -20 -9t-8 -22t14 -39q-23 -18 -23 -47q0 -16 8 -26.5t21 -10.5q19 0 29 24h1l12 -24l12 6l-17 32q6 14 13 39zM523 323v-46h8v12l8 8l15 -20h10l-20 26l18 20
h-10l-20 -24h-1v24h-8zM488 292l10 -15h9l-12 17q10 4 10 14q0 15 -17 15h-20v-46h8v15h12zM426 276q10 0 17 7t7 17q0 9 -7 16.5t-17 7.5t-17 -7.5t-7 -16.5q0 -10 7 -17t17 -7zM370 301l-13 22h-9l18 -29v-17h8v17l18 29h-9zM193 323v-46h34v7h-26v13h23v7h-23v12h26v7
h-34zM132 323v-46h8v32l25 -32h7v46h-8v-32l-25 32h-7zM241 323l14 -47h8l11 34h1l11 -34h8l14 47h-8l-10 -35h-1l-11 35h-7l-11 -35h-1l-10 35h-8zM327 479q-12 22 -12 32q0 19 14 19q13 0 13 -19q0 -15 -15 -32zM342 423q-8 -21 -20 -21q-16 0 -16 25q0 19 16 35zM487 299
h-11v17h11q10 0 10 -8q0 -9 -10 -9zM426 283q-16 0 -16 17q0 6 4.5 11.5t11.5 5.5t11.5 -5.5t4.5 -11.5q0 -17 -16 -17z" />
    <glyph glyph-name="i.dot" horiz-adv-x="132" 
d="M58 615v55h16v-55h-16zM59 0v530h14v-530h-14z" />
    <glyph glyph-name="caron.alt" 
d="M196 592v113h13l-4 -113h-9z" />
    <glyph glyph-name="acute.cap" 
d="M240 745l53 73h18l-59 -73h-12z" />
    <glyph glyph-name="hungarumlaut.cap" 
d="M200 745l55 73h16l-60 -73h-11zM266 745l55 73h16l-60 -73h-11z" />
    <glyph glyph-name="grave.cap" 
d="M228 818l53 -73h-12l-59 73h18z" />
    <glyph glyph-name="circumflex.cap" 
d="M259 826l60 -81h-10l-59 70l-58 -70h-11l61 81h17z" />
    <glyph glyph-name="caron.cap" 
d="M319 826l-60 -81h-17l-61 81h11l58 -71l59 71h10z" />
    <glyph glyph-name="breve.cap" 
d="M182 794v24h11v-24q0 -39 49 -39h15q49 0 49 39v24h11v-24q0 -50 -60 -50h-15q-60 0 -60 50z" />
    <glyph glyph-name="tilde.cap" 
d="M191 827h6q13 0 30 -15l52 -44q16 -13 24 -13h5q15 0 15 19v52h11v-57q0 -25 -25 -25h-6q-13 0 -30 15l-52 44q-16 13 -24 13h-5q-15 0 -15 -19v-52h-11v57q0 25 25 25z" />
    <glyph glyph-name="macron.cap" 
d="M173 785h154v-12h-154v12z" />
    <glyph glyph-name="dieresis.cap" 
d="M293 745v58h12v-58h-12zM209 803v-58h-12v58h12z" />
    <glyph glyph-name="dotaccent.cap" 
d="M247 806v-61h-13v61h13z" />
    <glyph glyph-name="ring.cap" 
d="M336 797v-3q0 -25 -14 -35.5t-45 -10.5h-54q-31 0 -45 10.5t-14 35.5v3q0 25 14 35.5t45 10.5h54q31 0 45 -10.5t14 -35.5zM325 794v3q0 20 -11 27.5t-38 7.5h-52q-27 0 -38 -7.5t-11 -27.5v-3q0 -20 11 -27.5t38 -7.5h52q27 0 38 7.5t11 27.5z" />
    <glyph glyph-name="commaaccent.alt" 
d="M234 -45v-19q0 -31 -17 -65h-10q15 34 15 65v19h12z" />
    </font>
</defs>
</svg>
